<svg xmlns="http://www.w3.org/2000/svg" xmlns:xlink="http://www.w3.org/1999/xlink" width="500" zoomAndPan="magnify" viewBox="0 0 375 374.999991" height="500" preserveAspectRatio="xMidYMid meet" version="1.0"><defs><g/></defs><g fill="#c15b75" fill-opacity="1"><g transform="translate(31.306877, 224.999229)"><g><path d="M 86.210938 -26.570312 C 84.078125 -23.371094 80.390625 -21.625 76.902344 -21.625 C 72.246094 -21.625 69.433594 -25.308594 69.433594 -29.867188 C 69.433594 -32.292969 70.308594 -34.136719 72.246094 -34.910156 C 84.175781 -39.757812 92.515625 -52.949219 92.515625 -63.421875 C 92.515625 -70.210938 89.214844 -73.117188 84.269531 -73.117188 C 74.960938 -73.117188 69.53125 -62.644531 63.035156 -43.832031 C 61.773438 -40.4375 61.480469 -38.886719 58.863281 -38.691406 C 57.019531 -38.5 55.082031 -38.5 54.015625 -38.5 C 52.367188 -38.5 50.621094 -39.082031 52.074219 -42.863281 C 52.171875 -42.960938 52.171875 -42.960938 52.171875 -43.058594 C 53.917969 -47.421875 55.566406 -51.976562 56.925781 -56.246094 C 60.609375 -65.941406 57.019531 -72.148438 44.027344 -72.148438 C 23.078125 -72.148438 8.144531 -58.183594 8.144531 -41.601562 C 8.144531 -34.136719 12.316406 -27.347656 20.269531 -27.347656 C 29.675781 -27.347656 34.71875 -35.6875 32.972656 -39.953125 C 30.839844 -39.953125 29.285156 -42.085938 29.285156 -44.800781 C 29.285156 -53.140625 37.335938 -59.15625 46.449219 -56.632812 C 43.445312 -49.167969 40.535156 -42.378906 38.207031 -36.269531 C 33.746094 -24.535156 25.699219 -19.6875 19.007812 -19.6875 C 13.671875 -19.6875 9.503906 -22.59375 9.503906 -26.863281 C 9.503906 -27.539062 8.824219 -28.027344 8.050781 -28.027344 C 0.289062 -28.027344 -4.847656 -20.171875 -4.847656 -12.21875 C -4.847656 -4.167969 0.679688 4.074219 11.929688 4.074219 C 25.796875 4.074219 35.6875 -5.722656 42.863281 -21.042969 C 43.542969 -22.5 44.511719 -24.730469 45.675781 -27.445312 C 45.867188 -27.929688 46.160156 -28.511719 46.449219 -29.09375 C 47.808594 -31.710938 49.167969 -31.613281 50.621094 -31.613281 C 55.664062 -31.613281 58.863281 -32.488281 57.117188 -26.863281 L 57.019531 -26.472656 C 55.082031 -20.65625 54.695312 -15.902344 54.695312 -11.636719 C 54.695312 -4.074219 59.15625 0 66.039062 0 C 80.390625 0 87.472656 -18.714844 90.574219 -24.148438 C 91.640625 -25.988281 87.761719 -28.898438 86.210938 -26.570312 Z M 73.410156 -48.195312 C 74.574219 -51.6875 75.929688 -54.984375 78.644531 -54.984375 C 80.003906 -54.984375 80.683594 -54.015625 80.683594 -52.558594 C 80.683594 -48.972656 76.027344 -42.570312 73.117188 -42.570312 C 72.246094 -42.570312 71.859375 -43.25 73.410156 -48.195312 Z M 73.410156 -48.195312 "/></g></g></g><g fill="#c15b75" fill-opacity="1"><g transform="translate(115.2845, 224.999229)"><g><path d="M 18.230469 0 C 29.480469 0 39.757812 -8.339844 48.292969 -24.148438 C 49.359375 -25.988281 45.480469 -28.898438 43.929688 -26.570312 C 39.566406 -19.878906 31.710938 -16.484375 25.117188 -16.484375 C 19.589844 -16.484375 15.03125 -18.230469 15.03125 -21.625 C 15.03125 -22.886719 16 -23.175781 16.679688 -22.789062 C 18.910156 -21.527344 21.527344 -21.238281 24.242188 -21.238281 C 33.746094 -21.238281 39.855469 -29.1875 39.855469 -36.269531 C 39.855469 -42.667969 35.878906 -48.488281 26.863281 -48.488281 C -0.96875 -48.488281 -9.019531 0 18.230469 0 Z M 21.722656 -28.511719 C 18.621094 -28.511719 17.164062 -30.351562 17.164062 -32.488281 C 17.164062 -35.105469 19.492188 -37.917969 23.273438 -37.917969 C 26.28125 -37.917969 27.734375 -36.074219 27.734375 -33.941406 C 27.734375 -31.515625 25.503906 -28.511719 21.722656 -28.511719 Z M 21.722656 -28.511719 "/></g></g></g><g fill="#c15b75" fill-opacity="1"><g transform="translate(156.982392, 224.999229)"><g><path d="M 56.4375 -25.019531 C 56.4375 -25.890625 55.371094 -27.929688 53.917969 -27.929688 C 53.335938 -27.929688 53.140625 -28.414062 51.882812 -26.570312 C 49.746094 -23.371094 46.644531 -19.6875 41.503906 -19.6875 C 37.140625 -19.6875 32.972656 -22.304688 32.972656 -27.25 C 32.972656 -31.03125 35.296875 -34.621094 38.789062 -34.621094 C 41.796875 -34.621094 42.085938 -31.90625 43.25 -31.90625 C 46.0625 -31.90625 48.292969 -37.140625 48.292969 -41.3125 C 48.292969 -45.382812 46.160156 -48.488281 41.3125 -48.488281 C 34.8125 -48.488281 29.578125 -42.960938 27.054688 -36.171875 C 26.863281 -42.765625 23.855469 -48.488281 18.425781 -48.488281 C 9.699219 -48.488281 7.175781 -33.746094 2.230469 -26.570312 L 6.59375 -24.148438 C 9.019531 -28.800781 11.929688 -34.8125 16.292969 -34.8125 C 19.105469 -34.8125 20.363281 -32.292969 20.363281 -29.09375 C 20.363281 -24.921875 18.328125 -19.6875 12.703125 -19.6875 C 1.261719 -19.6875 -2.617188 0 8.535156 0 C 15.515625 0 20.269531 -6.886719 22.984375 -13.480469 C 23.273438 -5.625 25.117188 0 31.226562 0 C 42.863281 0 54.015625 -20.363281 56.246094 -24.148438 L 56.730469 -25.019531 C 56.730469 -25.019531 56.4375 -24.535156 56.4375 -25.019531 Z M 56.4375 -25.019531 "/></g></g></g><g fill="#c15b75" fill-opacity="1"><g transform="translate(206.631977, 224.999229)"><g><path d="M 15.320312 9.019531 C 29.867188 9.019531 41.503906 -0.96875 46.257812 -15.226562 C 48.679688 -22.5 50.71875 -28.027344 52.558594 -35.6875 C 53.140625 -38.304688 49.261719 -40.535156 46.839844 -37.820312 C 44.21875 -34.8125 40.828125 -33.84375 37.433594 -33.84375 C 31.324219 -33.84375 27.832031 -37.917969 27.832031 -43.542969 C 27.832031 -49.746094 32.875 -55.859375 39.664062 -55.859375 C 44.898438 -55.859375 45.867188 -51.398438 44.125 -47.421875 C 43.347656 -45.773438 45.578125 -44.609375 47.519531 -44.609375 C 54.597656 -44.609375 61.675781 -49.554688 61.675781 -58.574219 C 61.675781 -66.621094 56.4375 -72.34375 46.0625 -72.34375 C 27.152344 -72.34375 10.375 -54.015625 10.375 -33.648438 C 10.375 -21.335938 16.097656 -14.644531 23.757812 -14.644531 C 28.21875 -14.644531 31.90625 -16.777344 34.621094 -20.363281 C 35.492188 -21.429688 36.558594 -20.171875 35.976562 -18.910156 C 33.164062 -12.996094 28.316406 -9.40625 21.238281 -9.40625 C 12.703125 -9.40625 5.914062 -14.449219 5.914062 -21.917969 C 5.914062 -22.59375 5.238281 -23.078125 4.460938 -23.078125 C -2.035156 -23.078125 -6.304688 -16.777344 -6.304688 -9.210938 C -6.304688 0.871094 2.035156 9.019531 15.320312 9.019531 Z M 15.320312 9.019531 "/></g></g></g><g fill="#c15b75" fill-opacity="1"><g transform="translate(260.257414, 224.999229)"><g><path d="M 18.230469 0 C 29.480469 0 39.757812 -8.339844 48.292969 -24.148438 C 49.359375 -25.988281 45.480469 -28.898438 43.929688 -26.570312 C 39.566406 -19.878906 31.710938 -16.484375 25.117188 -16.484375 C 19.589844 -16.484375 15.03125 -18.230469 15.03125 -21.625 C 15.03125 -22.886719 16 -23.175781 16.679688 -22.789062 C 18.910156 -21.527344 21.527344 -21.238281 24.242188 -21.238281 C 33.746094 -21.238281 39.855469 -29.1875 39.855469 -36.269531 C 39.855469 -42.667969 35.878906 -48.488281 26.863281 -48.488281 C -0.96875 -48.488281 -9.019531 0 18.230469 0 Z M 21.722656 -28.511719 C 18.621094 -28.511719 17.164062 -30.351562 17.164062 -32.488281 C 17.164062 -35.105469 19.492188 -37.917969 23.273438 -37.917969 C 26.28125 -37.917969 27.734375 -36.074219 27.734375 -33.941406 C 27.734375 -31.515625 25.503906 -28.511719 21.722656 -28.511719 Z M 21.722656 -28.511719 "/></g></g></g><g fill="#c15b75" fill-opacity="1"><g transform="translate(301.955318, 224.999229)"><g><path d="M 6.109375 0 C 12.800781 0 14.0625 -5.332031 14.0625 -10.28125 L 14.0625 -14.644531 C 14.0625 -23.273438 18.910156 -31.324219 24.535156 -31.324219 C 26.765625 -31.324219 28.21875 -30.160156 28.21875 -27.929688 C 28.21875 -23.953125 24.148438 -17.457031 24.148438 -10.085938 C 24.148438 -4.65625 26.28125 0 32.390625 0 C 45.480469 0 52.074219 -18.8125 55.179688 -24.148438 C 56.246094 -25.988281 52.367188 -28.898438 50.816406 -26.570312 C 48.875 -23.660156 47.03125 -21.625 44.125 -21.625 C 40.921875 -21.625 39.46875 -23.175781 39.46875 -26.472656 C 39.46875 -31.324219 42.570312 -34.425781 42.570312 -39.566406 C 42.570312 -44.414062 39.757812 -48.488281 33.84375 -48.488281 C 29.578125 -48.488281 25.699219 -46.449219 22.109375 -42.960938 C 19.007812 -39.855469 17.066406 -41.019531 17.066406 -44.800781 C 17.066406 -46.742188 16.484375 -48.488281 13.867188 -48.488281 C 10.28125 -48.488281 5.429688 -37.917969 2.230469 -26.570312 C 0 -18.621094 -0.96875 -11.636719 -0.96875 -7.078125 C -0.96875 -3.007812 1.550781 0 6.109375 0 Z M 6.109375 0 "/></g></g></g><g fill="#e19fae" fill-opacity="1"><g transform="translate(27.878169, 221.570529)"><g><path d="M 86.210938 -26.570312 C 84.078125 -23.371094 80.390625 -21.625 76.902344 -21.625 C 72.246094 -21.625 69.433594 -25.308594 69.433594 -29.867188 C 69.433594 -32.292969 70.308594 -34.136719 72.246094 -34.910156 C 84.175781 -39.757812 92.515625 -52.949219 92.515625 -63.421875 C 92.515625 -70.210938 89.214844 -73.117188 84.269531 -73.117188 C 74.960938 -73.117188 69.53125 -62.644531 63.035156 -43.832031 C 61.773438 -40.4375 61.480469 -38.886719 58.863281 -38.691406 C 57.019531 -38.5 55.082031 -38.5 54.015625 -38.5 C 52.367188 -38.5 50.621094 -39.082031 52.074219 -42.863281 C 52.171875 -42.960938 52.171875 -42.960938 52.171875 -43.058594 C 53.917969 -47.421875 55.566406 -51.976562 56.925781 -56.246094 C 60.609375 -65.941406 57.019531 -72.148438 44.027344 -72.148438 C 23.078125 -72.148438 8.144531 -58.183594 8.144531 -41.601562 C 8.144531 -34.136719 12.316406 -27.347656 20.269531 -27.347656 C 29.675781 -27.347656 34.71875 -35.6875 32.972656 -39.953125 C 30.839844 -39.953125 29.285156 -42.085938 29.285156 -44.800781 C 29.285156 -53.140625 37.335938 -59.15625 46.449219 -56.632812 C 43.445312 -49.167969 40.535156 -42.378906 38.207031 -36.269531 C 33.746094 -24.535156 25.699219 -19.6875 19.007812 -19.6875 C 13.671875 -19.6875 9.503906 -22.59375 9.503906 -26.863281 C 9.503906 -27.539062 8.824219 -28.027344 8.050781 -28.027344 C 0.289062 -28.027344 -4.847656 -20.171875 -4.847656 -12.21875 C -4.847656 -4.167969 0.679688 4.074219 11.929688 4.074219 C 25.796875 4.074219 35.6875 -5.722656 42.863281 -21.042969 C 43.542969 -22.5 44.511719 -24.730469 45.675781 -27.445312 C 45.867188 -27.929688 46.160156 -28.511719 46.449219 -29.09375 C 47.808594 -31.710938 49.167969 -31.613281 50.621094 -31.613281 C 55.664062 -31.613281 58.863281 -32.488281 57.117188 -26.863281 L 57.019531 -26.472656 C 55.082031 -20.65625 54.695312 -15.902344 54.695312 -11.636719 C 54.695312 -4.074219 59.15625 0 66.039062 0 C 80.390625 0 87.472656 -18.714844 90.574219 -24.148438 C 91.640625 -25.988281 87.761719 -28.898438 86.210938 -26.570312 Z M 73.410156 -48.195312 C 74.574219 -51.6875 75.929688 -54.984375 78.644531 -54.984375 C 80.003906 -54.984375 80.683594 -54.015625 80.683594 -52.558594 C 80.683594 -48.972656 76.027344 -42.570312 73.117188 -42.570312 C 72.246094 -42.570312 71.859375 -43.25 73.410156 -48.195312 Z M 73.410156 -48.195312 "/></g></g></g><g fill="#e19fae" fill-opacity="1"><g transform="translate(111.855792, 221.570529)"><g><path d="M 18.230469 0 C 29.480469 0 39.757812 -8.339844 48.292969 -24.148438 C 49.359375 -25.988281 45.480469 -28.898438 43.929688 -26.570312 C 39.566406 -19.878906 31.710938 -16.484375 25.117188 -16.484375 C 19.589844 -16.484375 15.03125 -18.230469 15.03125 -21.625 C 15.03125 -22.886719 16 -23.175781 16.679688 -22.789062 C 18.910156 -21.527344 21.527344 -21.238281 24.242188 -21.238281 C 33.746094 -21.238281 39.855469 -29.1875 39.855469 -36.269531 C 39.855469 -42.667969 35.878906 -48.488281 26.863281 -48.488281 C -0.96875 -48.488281 -9.019531 0 18.230469 0 Z M 21.722656 -28.511719 C 18.621094 -28.511719 17.164062 -30.351562 17.164062 -32.488281 C 17.164062 -35.105469 19.492188 -37.917969 23.273438 -37.917969 C 26.28125 -37.917969 27.734375 -36.074219 27.734375 -33.941406 C 27.734375 -31.515625 25.503906 -28.511719 21.722656 -28.511719 Z M 21.722656 -28.511719 "/></g></g></g><g fill="#e19fae" fill-opacity="1"><g transform="translate(153.553684, 221.570529)"><g><path d="M 56.4375 -25.019531 C 56.4375 -25.890625 55.371094 -27.929688 53.917969 -27.929688 C 53.335938 -27.929688 53.140625 -28.414062 51.882812 -26.570312 C 49.746094 -23.371094 46.644531 -19.6875 41.503906 -19.6875 C 37.140625 -19.6875 32.972656 -22.304688 32.972656 -27.25 C 32.972656 -31.03125 35.296875 -34.621094 38.789062 -34.621094 C 41.796875 -34.621094 42.085938 -31.90625 43.25 -31.90625 C 46.0625 -31.90625 48.292969 -37.140625 48.292969 -41.3125 C 48.292969 -45.382812 46.160156 -48.488281 41.3125 -48.488281 C 34.8125 -48.488281 29.578125 -42.960938 27.054688 -36.171875 C 26.863281 -42.765625 23.855469 -48.488281 18.425781 -48.488281 C 9.699219 -48.488281 7.175781 -33.746094 2.230469 -26.570312 L 6.59375 -24.148438 C 9.019531 -28.800781 11.929688 -34.8125 16.292969 -34.8125 C 19.105469 -34.8125 20.363281 -32.292969 20.363281 -29.09375 C 20.363281 -24.921875 18.328125 -19.6875 12.703125 -19.6875 C 1.261719 -19.6875 -2.617188 0 8.535156 0 C 15.515625 0 20.269531 -6.886719 22.984375 -13.480469 C 23.273438 -5.625 25.117188 0 31.226562 0 C 42.863281 0 54.015625 -20.363281 56.246094 -24.148438 L 56.730469 -25.019531 C 56.730469 -25.019531 56.4375 -24.535156 56.4375 -25.019531 Z M 56.4375 -25.019531 "/></g></g></g><g fill="#e19fae" fill-opacity="1"><g transform="translate(203.203269, 221.570529)"><g><path d="M 15.320312 9.019531 C 29.867188 9.019531 41.503906 -0.96875 46.257812 -15.226562 C 48.679688 -22.5 50.71875 -28.027344 52.558594 -35.6875 C 53.140625 -38.304688 49.261719 -40.535156 46.839844 -37.820312 C 44.21875 -34.8125 40.828125 -33.84375 37.433594 -33.84375 C 31.324219 -33.84375 27.832031 -37.917969 27.832031 -43.542969 C 27.832031 -49.746094 32.875 -55.859375 39.664062 -55.859375 C 44.898438 -55.859375 45.867188 -51.398438 44.125 -47.421875 C 43.347656 -45.773438 45.578125 -44.609375 47.519531 -44.609375 C 54.597656 -44.609375 61.675781 -49.554688 61.675781 -58.574219 C 61.675781 -66.621094 56.4375 -72.34375 46.0625 -72.34375 C 27.152344 -72.34375 10.375 -54.015625 10.375 -33.648438 C 10.375 -21.335938 16.097656 -14.644531 23.757812 -14.644531 C 28.21875 -14.644531 31.90625 -16.777344 34.621094 -20.363281 C 35.492188 -21.429688 36.558594 -20.171875 35.976562 -18.910156 C 33.164062 -12.996094 28.316406 -9.40625 21.238281 -9.40625 C 12.703125 -9.40625 5.914062 -14.449219 5.914062 -21.917969 C 5.914062 -22.59375 5.238281 -23.078125 4.460938 -23.078125 C -2.035156 -23.078125 -6.304688 -16.777344 -6.304688 -9.210938 C -6.304688 0.871094 2.035156 9.019531 15.320312 9.019531 Z M 15.320312 9.019531 "/></g></g></g><g fill="#e19fae" fill-opacity="1"><g transform="translate(256.828706, 221.570529)"><g><path d="M 18.230469 0 C 29.480469 0 39.757812 -8.339844 48.292969 -24.148438 C 49.359375 -25.988281 45.480469 -28.898438 43.929688 -26.570312 C 39.566406 -19.878906 31.710938 -16.484375 25.117188 -16.484375 C 19.589844 -16.484375 15.03125 -18.230469 15.03125 -21.625 C 15.03125 -22.886719 16 -23.175781 16.679688 -22.789062 C 18.910156 -21.527344 21.527344 -21.238281 24.242188 -21.238281 C 33.746094 -21.238281 39.855469 -29.1875 39.855469 -36.269531 C 39.855469 -42.667969 35.878906 -48.488281 26.863281 -48.488281 C -0.96875 -48.488281 -9.019531 0 18.230469 0 Z M 21.722656 -28.511719 C 18.621094 -28.511719 17.164062 -30.351562 17.164062 -32.488281 C 17.164062 -35.105469 19.492188 -37.917969 23.273438 -37.917969 C 26.28125 -37.917969 27.734375 -36.074219 27.734375 -33.941406 C 27.734375 -31.515625 25.503906 -28.511719 21.722656 -28.511719 Z M 21.722656 -28.511719 "/></g></g></g><g fill="#e19fae" fill-opacity="1"><g transform="translate(298.52661, 221.570529)"><g><path d="M 6.109375 0 C 12.800781 0 14.0625 -5.332031 14.0625 -10.28125 L 14.0625 -14.644531 C 14.0625 -23.273438 18.910156 -31.324219 24.535156 -31.324219 C 26.765625 -31.324219 28.21875 -30.160156 28.21875 -27.929688 C 28.21875 -23.953125 24.148438 -17.457031 24.148438 -10.085938 C 24.148438 -4.65625 26.28125 0 32.390625 0 C 45.480469 0 52.074219 -18.8125 55.179688 -24.148438 C 56.246094 -25.988281 52.367188 -28.898438 50.816406 -26.570312 C 48.875 -23.660156 47.03125 -21.625 44.125 -21.625 C 40.921875 -21.625 39.46875 -23.175781 39.46875 -26.472656 C 39.46875 -31.324219 42.570312 -34.425781 42.570312 -39.566406 C 42.570312 -44.414062 39.757812 -48.488281 33.84375 -48.488281 C 29.578125 -48.488281 25.699219 -46.449219 22.109375 -42.960938 C 19.007812 -39.855469 17.066406 -41.019531 17.066406 -44.800781 C 17.066406 -46.742188 16.484375 -48.488281 13.867188 -48.488281 C 10.28125 -48.488281 5.429688 -37.917969 2.230469 -26.570312 C 0 -18.621094 -0.96875 -11.636719 -0.96875 -7.078125 C -0.96875 -3.007812 1.550781 0 6.109375 0 Z M 6.109375 0 "/></g></g></g></svg>