<svg xmlns="http://www.w3.org/2000/svg" xmlns:xlink="http://www.w3.org/1999/xlink" width="500" zoomAndPan="magnify" viewBox="0 0 375 374.999991" height="500" preserveAspectRatio="xMidYMid meet" version="1.0"><defs><clipPath id="caa3a894a0"><path d="M 73 11.421875 L 302 11.421875 L 302 363 L 73 363 Z M 73 11.421875 " clip-rule="nonzero"/></clipPath><clipPath id="d1421981a6"><path d="M 73 11.421875 L 302 11.421875 L 302 363 L 73 363 Z M 73 11.421875 " clip-rule="nonzero"/></clipPath></defs><g clip-path="url(#caa3a894a0)"><path fill="#4d4d4d" d="M 180.542969 262.085938 C 181.699219 265.34375 182.921875 272.707031 177.921875 273.359375 C 175.074219 273.730469 172.984375 271.589844 172.328125 268.996094 C 171.75 266.710938 171.902344 264.25 172.316406 261.949219 C 172.695312 259.972656 174.027344 257.828125 176.328125 258.035156 C 178.585938 258.238281 179.84375 260.117188 180.542969 262.085938 Z M 295.75 193.226562 C 292.960938 196.882812 289.789062 200.191406 286.65625 203.542969 C 283.074219 207.375 279.324219 211.046875 275.277344 214.386719 C 266.878906 221.308594 257.328125 226.71875 246.664062 229.191406 C 236.917969 231.449219 226.746094 231.398438 216.933594 229.578125 C 213.824219 229.003906 210.738281 228.246094 207.726562 227.273438 C 206.628906 226.917969 204.773438 226.585938 203.890625 225.746094 C 203.339844 225.226562 202.96875 224.394531 202.558594 223.765625 C 202.105469 223.066406 201.648438 222.367188 201.191406 221.667969 C 200.367188 220.410156 199.546875 219.148438 198.726562 217.890625 C 197.082031 215.371094 195.4375 212.851562 193.796875 210.335938 C 191.089844 206.1875 188.386719 202.042969 185.683594 197.898438 C 185.8125 200.683594 185.882812 203.472656 185.800781 206.257812 C 185.722656 208.8125 184.601562 211.664062 181.542969 211.347656 C 178.738281 211.058594 177.164062 208.554688 176.882812 205.957031 C 176.707031 204.339844 177.386719 200.773438 175.992188 199.28125 C 175.871094 199.683594 175.792969 200.152344 175.753906 200.4375 C 175.585938 201.585938 175.605469 202.773438 175.636719 203.929688 C 175.703125 206.269531 175.824219 208.636719 175.996094 210.964844 C 176.292969 214.96875 176.972656 218.929688 177.460938 222.910156 C 177.9375 226.832031 178.226562 230.777344 178.320312 234.726562 C 178.414062 238.839844 178.304688 242.957031 177.984375 247.0625 C 177.816406 249.191406 177.609375 251.328125 177.3125 253.445312 C 177.136719 254.714844 176.730469 255.929688 175.960938 256.972656 C 174.398438 259.085938 171.574219 259.214844 170.300781 256.761719 C 169.527344 255.273438 169.570312 253.339844 168.625 251.953125 C 168.449219 251.699219 168.347656 251.5625 168.128906 251.515625 C 167.992188 251.488281 167.546875 251.609375 167.449219 251.613281 C 167.382812 251.671875 167.261719 251.773438 167.265625 251.769531 C 167.074219 252.058594 166.90625 252.359375 166.773438 252.679688 C 166.078125 254.347656 165.828125 256.289062 165.632812 258.078125 C 165.398438 260.242188 165.292969 262.421875 165.332031 264.597656 C 165.363281 266.441406 165.386719 267.386719 166.136719 269.082031 C 168.359375 274.109375 173.714844 277.410156 178.644531 279.351562 C 181.714844 280.5625 184.941406 281.277344 188.183594 281.863281 C 191.9375 282.542969 195.71875 283.230469 199.488281 283.765625 C 203.347656 284.320312 207.300781 284.289062 211.085938 285.316406 C 212.59375 285.726562 214.132812 286.308594 215.050781 287.65625 C 215.902344 288.90625 216.105469 290.496094 215.945312 291.972656 C 215.757812 293.691406 215.066406 295.292969 213.949219 296.609375 C 213.101562 297.613281 212.113281 298.425781 211.378906 299.503906 C 211.324219 299.578125 211.253906 299.613281 211.390625 299.664062 C 211.167969 299.578125 211.589844 299.757812 211.417969 299.664062 C 211.574219 299.75 211.71875 299.851562 211.882812 299.929688 C 212.597656 300.261719 213.460938 300.40625 214.238281 300.539062 C 216.066406 300.851562 217.929688 300.894531 219.738281 301.328125 C 222.378906 301.964844 224.992188 303.121094 227.035156 304.9375 C 229.003906 306.691406 230.21875 309.207031 229.949219 311.871094 C 229.632812 314.992188 227.480469 317.398438 225.046875 319.179688 C 222.363281 321.144531 219.179688 322.488281 216.082031 323.652344 C 212.886719 324.847656 209.585938 325.496094 206.308594 326.398438 C 204.117188 327.003906 201.300781 327.839844 200.070312 329.941406 C 199.195312 331.429688 199.640625 333.105469 199.871094 334.710938 C 200.082031 336.160156 200.125 337.617188 199.632812 339.015625 C 197.847656 344.128906 191.625 345.902344 186.785156 346.324219 C 181.894531 346.75 174.804688 346.457031 172.667969 351.96875 C 172.074219 353.507812 171.695312 355.082031 170.6875 356.421875 C 169.867188 357.507812 168.800781 358.382812 167.597656 359.011719 C 164.96875 360.386719 161.964844 360.757812 159.050781 361.019531 C 144.496094 362.335938 129.371094 363.53125 115.105469 359.550781 C 109.527344 357.992188 102.191406 355.617188 99.574219 349.878906 C 98.347656 347.191406 98.640625 344.21875 100.09375 341.679688 C 101.652344 338.960938 104.148438 337.046875 106.246094 334.785156 C 108.125 332.757812 110.515625 329.273438 108.703125 326.503906 C 106.945312 323.816406 102.894531 322.941406 99.925781 322.648438 C 93.199219 321.988281 86.082031 323.558594 79.785156 320.398438 C 74.945312 317.972656 71.285156 311.386719 74.34375 306.261719 C 75.921875 303.609375 78.835938 302.277344 81.695312 301.480469 C 85.164062 300.511719 88.730469 299.875 92.230469 299.027344 C 95.308594 298.28125 98.324219 297.304688 101.457031 296.792969 C 103.832031 296.40625 106.507812 296.167969 108.683594 295.054688 C 109.050781 294.867188 109.679688 294.574219 109.875 294.171875 C 110.144531 293.621094 109.863281 292.710938 109.851562 292.117188 C 109.835938 291.285156 109.964844 290.449219 110.261719 289.671875 C 110.898438 288 112.175781 286.742188 113.652344 285.78125 C 117.136719 283.511719 121.570312 282.710938 125.605469 282.054688 C 129.480469 281.425781 133.382812 281.109375 137.175781 280.066406 C 143.246094 278.398438 149.863281 275.429688 152.722656 269.441406 C 155.320312 264 154.652344 257.527344 154.800781 251.679688 C 155.210938 235.464844 155.128906 219.234375 155.09375 203.015625 C 155.082031 196.191406 155.0625 189.371094 155.058594 182.550781 C 155.058594 182.03125 155.066406 181.484375 154.980469 180.96875 C 154.960938 180.839844 154.84375 180.488281 154.796875 180.3125 C 154.542969 180.445312 154.109375 180.617188 153.882812 180.769531 C 152.574219 181.664062 151.328125 182.714844 149.617188 182.347656 C 148.132812 182.027344 146.988281 180.84375 146.476562 179.445312 C 145.835938 177.6875 146.105469 175.699219 146.226562 173.878906 C 146.34375 172.125 146.492188 170.375 146.675781 168.632812 C 147.09375 164.691406 147.675781 160.765625 148.429688 156.875 C 149.375 152.003906 150.550781 147.113281 152.066406 142.351562 C 150.675781 142.140625 149.339844 141.703125 148.058594 141.039062 C 144.359375 139.113281 141.601562 136.070312 140.183594 132.140625 C 138.746094 128.160156 138.898438 123.722656 139.546875 119.601562 C 140.949219 110.699219 145.46875 102.789062 151.273438 96.015625 C 155.8125 90.714844 161.003906 85.949219 166.636719 81.742188 C 166.28125 81.324219 166.15625 80.730469 166.527344 80.117188 C 167.75 78.082031 168.996094 76.054688 170.261719 74.039062 C 175.324219 65.988281 180.710938 58.140625 186.402344 50.519531 C 191.304688 43.957031 196.445312 37.554688 202.253906 31.765625 C 213.210938 20.851562 227.4375 11.507812 243.460938 11.644531 C 251.625 11.710938 259.464844 14.691406 264.460938 21.351562 C 269.433594 27.980469 270.785156 36.65625 269.996094 44.738281 C 269.09375 53.949219 266.03125 62.933594 263.003906 71.632812 C 260.777344 78.023438 258.3125 84.328125 255.617188 90.53125 C 264.996094 107.152344 273.996094 123.980469 283.246094 140.675781 C 286.691406 146.902344 290.132812 153.132812 293.472656 159.417969 C 296.167969 164.480469 298.964844 169.566406 301.121094 174.890625 C 303.707031 181.277344 299.558594 188.230469 295.75 193.226562 Z M 154.785156 180.167969 C 154.792969 180.027344 154.605469 180.089844 154.785156 180.167969 Z M 253.765625 87.269531 C 256.585938 80.632812 259.144531 73.886719 261.414062 67.042969 C 264.25 58.488281 267.203125 49.566406 267.230469 40.460938 C 267.253906 32.964844 264.917969 25.058594 259.167969 19.949219 C 253.238281 14.683594 244.582031 13.894531 237.054688 15.136719 C 221.886719 17.640625 209.523438 27.835938 199.546875 38.96875 C 194.011719 45.144531 189.023438 51.804688 184.214844 58.558594 C 179.539062 65.125 175.105469 71.863281 170.882812 78.730469 C 178.429688 73.667969 186.640625 69.578125 195.105469 66.578125 C 211.023438 60.933594 231.75 57.460938 244.882812 70.878906 C 247.46875 73.523438 249.589844 76.839844 250.242188 80.53125 C 250.324219 80.984375 250.378906 81.4375 250.414062 81.890625 C 250.664062 82.003906 250.890625 82.199219 251.0625 82.503906 C 251.96875 84.089844 252.867188 85.679688 253.765625 87.269531 Z M 253.765625 87.269531 " fill-opacity="1" fill-rule="nonzero"/></g><path fill="#dd6565" d="M 224.625 137.054688 C 224.753906 137.066406 224.675781 137.0625 224.617188 137.054688 C 224.617188 137.054688 224.621094 137.054688 224.625 137.054688 Z M 298.984375 177.898438 C 299 178.101562 299 178.011719 298.984375 177.898438 Z M 205.367188 223.261719 C 205.386719 223.269531 205.402344 223.28125 205.421875 223.285156 C 205.484375 223.308594 205.546875 223.335938 205.609375 223.359375 C 205.703125 223.394531 205.800781 223.433594 205.894531 223.46875 C 205.890625 223.46875 205.886719 223.464844 205.886719 223.460938 C 205.800781 223.410156 205.648438 223.339844 205.367188 223.261719 Z M 298.972656 177.847656 C 298.996094 178.179688 299 178.519531 298.988281 178.855469 C 298.929688 180.902344 298.320312 182.941406 297.472656 184.796875 C 295.53125 189.03125 292.53125 192.710938 289.445312 196.15625 C 286.375 199.582031 283.214844 202.964844 279.925781 206.179688 C 272.683594 213.257812 264.425781 219.597656 254.984375 223.433594 C 245.105469 227.445312 234.335938 228.621094 223.769531 227.566406 C 217.828125 226.96875 211.839844 225.703125 206.238281 223.601562 C 206.125 223.5625 206.015625 223.519531 205.90625 223.476562 C 205.902344 223.472656 205.894531 223.46875 205.886719 223.460938 C 205.824219 223.398438 205.746094 223.289062 205.6875 223.097656 C 205.507812 222.539062 204.917969 221.917969 204.589844 221.417969 C 204.226562 220.859375 203.859375 220.300781 203.496094 219.742188 C 202.582031 218.339844 201.667969 216.941406 200.757812 215.542969 C 197.46875 210.507812 194.183594 205.46875 190.898438 200.433594 C 189.253906 197.914062 187.609375 195.394531 185.96875 192.875 C 185.796875 192.617188 185.582031 192.445312 185.355469 192.335938 C 184.449219 179.585938 182.625 166.828125 183.75 154.042969 C 184.058594 150.535156 184.644531 147.046875 185.28125 143.585938 C 185.332031 143.304688 185.390625 143.027344 185.445312 142.753906 C 185.71875 142.792969 186.007812 142.765625 186.308594 142.636719 C 195.117188 138.8125 203.585938 134.160156 211.539062 128.777344 C 215.410156 126.152344 219.109375 123.292969 222.785156 120.40625 C 226.601562 117.410156 230.363281 114.332031 233.871094 110.972656 C 239.675781 105.414062 245.339844 98.84375 248.535156 91.390625 C 249.175781 89.890625 249.699219 88.339844 250.039062 86.757812 C 250.789062 88.082031 251.539062 89.402344 252.285156 90.730469 C 252.246094 90.816406 252.210938 90.90625 252.171875 90.996094 C 245.347656 106.386719 237.070312 121.136719 227.488281 134.980469 C 226.875 134.613281 226.203125 134.335938 225.492188 134.195312 C 223.5 133.792969 221.480469 134.289062 219.851562 135.496094 C 219.792969 135.539062 219.746094 135.585938 219.691406 135.632812 C 219.644531 135.664062 219.59375 135.695312 219.546875 135.730469 C 216.660156 137.984375 215.71875 142.277344 217.097656 145.617188 C 218.136719 148.132812 220.4375 149.789062 223.199219 149.769531 C 225.820312 149.75 228.230469 148.332031 229.714844 146.210938 C 231.53125 143.625 231.683594 139.894531 229.882812 137.261719 C 229.828125 137.179688 229.765625 137.101562 229.703125 137.019531 C 237.375 125.980469 244.222656 114.367188 250.160156 102.304688 C 256.820312 113.207031 263.25 124.25 269.441406 135.421875 C 270.371094 137.105469 272.953125 135.597656 272.019531 133.914062 C 265.742188 122.585938 259.21875 111.390625 252.460938 100.339844 C 252.199219 99.90625 251.824219 99.695312 251.433594 99.648438 C 251.925781 98.617188 252.429688 97.597656 252.910156 96.5625 C 253.3125 95.695312 253.691406 94.816406 254.082031 93.945312 C 262.179688 108.429688 270.066406 123.027344 278.101562 137.550781 C 284.347656 148.839844 290.804688 160.070312 296.421875 171.695312 C 297.320312 173.554688 298.121094 175.148438 298.730469 176.984375 C 298.8125 177.238281 298.871094 177.5 298.953125 177.753906 C 298.960938 177.78125 298.96875 177.8125 298.972656 177.847656 Z M 213.003906 212.320312 C 217.308594 209.378906 212.570312 203.179688 210.558594 200.332031 C 206.410156 194.457031 202.515625 188.394531 198.488281 182.433594 C 196.558594 179.578125 193.96875 176.441406 190.09375 177.136719 C 188.390625 177.4375 187.015625 178.410156 187.109375 180.257812 C 187.207031 182.183594 188.28125 183.863281 189.363281 185.390625 C 193.863281 191.691406 198.066406 198.199219 202.546875 204.511719 C 204.058594 206.644531 205.53125 208.964844 207.367188 210.84375 C 208.824219 212.335938 211.015625 213.679688 213.003906 212.320312 Z M 220.816406 218.480469 C 220.613281 217.027344 219.792969 215.769531 218.625 214.914062 C 217.882812 214.394531 216.917969 214.03125 215.996094 214.121094 C 215.050781 214.214844 214.191406 214.613281 213.539062 215.3125 C 212.40625 216.527344 211.851562 218.34375 212.046875 219.988281 C 212.175781 221.074219 212.546875 222.003906 213.234375 222.859375 C 213.796875 223.5625 214.632812 224.105469 215.527344 224.253906 C 217.441406 224.578125 219.304688 223.515625 220.238281 221.84375 C 220.820312 220.796875 220.984375 219.652344 220.816406 218.480469 Z M 278.761719 147.285156 C 277.679688 145.335938 276.59375 143.382812 275.507812 141.433594 C 275.128906 140.75 274.132812 140.464844 273.464844 140.898438 C 272.773438 141.34375 272.523438 142.210938 272.929688 142.941406 C 274.015625 144.890625 275.101562 146.84375 276.183594 148.792969 C 276.5625 149.476562 277.558594 149.761719 278.226562 149.328125 C 278.917969 148.882812 279.167969 148.015625 278.761719 147.285156 Z M 222.210938 146.667969 C 222.304688 146.695312 222.402344 146.714844 222.5 146.734375 C 222.53125 146.742188 222.566406 146.746094 222.597656 146.753906 C 222.796875 146.761719 222.996094 146.785156 223.199219 146.785156 C 223.316406 146.78125 223.433594 146.777344 223.550781 146.769531 C 223.574219 146.769531 223.628906 146.765625 223.679688 146.757812 C 223.75 146.746094 223.878906 146.730469 223.914062 146.722656 C 224.035156 146.699219 224.152344 146.671875 224.269531 146.640625 C 224.472656 146.589844 224.667969 146.519531 224.867188 146.453125 C 224.90625 146.441406 224.929688 146.433594 224.949219 146.429688 C 224.960938 146.421875 224.972656 146.414062 225 146.402344 C 225.09375 146.355469 225.191406 146.308594 225.285156 146.261719 C 225.492188 146.152344 225.695312 146.035156 225.886719 145.90625 C 225.914062 145.886719 226.003906 145.824219 226.070312 145.78125 C 226.125 145.734375 226.257812 145.628906 226.28125 145.609375 C 226.449219 145.464844 226.609375 145.308594 226.761719 145.148438 C 226.867188 145.039062 226.960938 144.921875 227.058594 144.8125 C 227.070312 144.800781 227.074219 144.796875 227.082031 144.789062 C 227.085938 144.777344 227.09375 144.769531 227.105469 144.75 C 227.242188 144.539062 227.382812 144.335938 227.507812 144.113281 C 227.574219 143.992188 227.640625 143.871094 227.699219 143.746094 C 227.71875 143.707031 227.742188 143.648438 227.761719 143.609375 C 227.847656 143.375 227.929688 143.140625 227.996094 142.898438 C 228.101562 142.511719 228.136719 142.335938 228.15625 142.089844 C 228.183594 141.785156 228.1875 141.476562 228.171875 141.171875 C 228.164062 141.066406 228.15625 140.960938 228.144531 140.859375 C 228.140625 140.847656 228.140625 140.847656 228.136719 140.832031 C 228.109375 140.6875 228.082031 140.546875 228.046875 140.402344 C 228.007812 140.242188 227.960938 140.078125 227.90625 139.917969 C 227.890625 139.875 227.832031 139.722656 227.820312 139.683594 C 227.816406 139.679688 227.816406 139.679688 227.816406 139.675781 C 227.089844 140.691406 226.375 141.714844 225.636719 142.71875 C 224.511719 144.253906 221.921875 142.765625 223.058594 141.214844 C 223.976562 139.964844 224.871094 138.699219 225.765625 137.4375 C 225.695312 137.398438 225.542969 137.328125 225.519531 137.316406 C 225.421875 137.277344 225.320312 137.238281 225.21875 137.207031 C 225.070312 137.160156 224.917969 137.125 224.765625 137.085938 C 224.707031 137.074219 224.648438 137.0625 224.589844 137.054688 C 224.277344 137.023438 223.96875 137.027344 223.65625 137.046875 C 223.640625 137.046875 223.640625 137.046875 223.632812 137.046875 C 223.582031 137.054688 223.535156 137.0625 223.488281 137.070312 C 223.324219 137.105469 223.15625 137.144531 222.992188 137.195312 C 222.511719 137.335938 222.035156 137.597656 221.507812 137.96875 C 220.886719 138.480469 220.472656 138.972656 220.101562 139.671875 C 219.921875 140.015625 219.859375 140.164062 219.730469 140.574219 C 219.664062 140.792969 219.605469 141.011719 219.558594 141.238281 C 219.535156 141.347656 219.515625 141.460938 219.496094 141.574219 C 219.472656 141.75 219.488281 141.636719 219.492188 141.601562 C 219.449219 142.027344 219.441406 142.457031 219.476562 142.882812 C 219.476562 142.90625 219.492188 143.050781 219.496094 143.101562 C 219.5 143.140625 219.507812 143.195312 219.507812 143.195312 C 219.539062 143.378906 219.574219 143.558594 219.617188 143.734375 C 219.691406 144.039062 219.789062 144.335938 219.902344 144.628906 C 219.902344 144.628906 219.902344 144.628906 219.902344 144.632812 C 219.929688 144.683594 219.953125 144.738281 219.980469 144.792969 C 220.039062 144.910156 220.105469 145.03125 220.175781 145.144531 C 220.246094 145.265625 220.328125 145.382812 220.410156 145.5 C 220.421875 145.519531 220.4375 145.539062 220.453125 145.554688 C 220.609375 145.726562 220.765625 145.882812 220.933594 146.039062 C 220.957031 146.058594 220.980469 146.078125 221.003906 146.097656 C 221.097656 146.15625 221.191406 146.226562 221.285156 146.285156 C 221.457031 146.386719 221.640625 146.464844 221.816406 146.558594 C 221.527344 146.40625 221.769531 146.535156 221.921875 146.585938 C 222.019531 146.617188 222.113281 146.644531 222.210938 146.667969 Z M 205.90625 223.476562 C 205.902344 223.472656 205.898438 223.472656 205.894531 223.46875 C 205.964844 223.542969 205.992188 223.53125 205.90625 223.476562 Z M 205.90625 223.476562 " fill-opacity="1" fill-rule="nonzero"/><path fill="#a68cdd" d="M 226.304688 308.65625 C 224.804688 306.152344 221.652344 304.859375 218.945312 304.207031 C 217.082031 303.761719 215.105469 303.734375 213.097656 303.355469 C 211.324219 303.023438 208.980469 302.347656 208.453125 300.363281 C 207.65625 297.367188 211.378906 295.738281 212.46875 293.480469 C 213.121094 292.128906 213.5 289.765625 212.015625 288.832031 C 210.402344 287.816406 207.945312 287.644531 206.101562 287.429688 C 204 287.1875 201.890625 287.0625 199.789062 286.796875 C 197.691406 286.527344 195.621094 286.101562 193.535156 285.761719 C 189.453125 285.09375 185.332031 284.523438 181.339844 283.40625 C 175.644531 281.816406 169.71875 278.84375 165.898438 274.214844 C 164.234375 272.195312 162.824219 269.769531 162.5 267.132812 C 162.265625 265.226562 162.308594 263.277344 162.398438 261.363281 C 162.507812 258.953125 162.738281 256.519531 163.25 254.15625 C 163.617188 252.457031 164.160156 250.324219 165.636719 249.230469 C 167.414062 247.917969 169.914062 248.496094 171.097656 250.285156 C 172.132812 251.84375 172.339844 253.867188 173.050781 255.566406 C 173.066406 255.605469 173.089844 255.628906 173.109375 255.652344 C 173.164062 255.59375 173.332031 255.511719 173.410156 255.402344 C 173.828125 254.8125 174.128906 254.242188 174.289062 253.527344 C 174.742188 251.519531 174.8125 249.355469 174.976562 247.308594 C 175.332031 242.878906 175.445312 238.425781 175.3125 233.984375 C 175.179688 229.515625 174.78125 225.0625 174.175781 220.632812 C 173.609375 216.460938 173.035156 212.320312 172.871094 208.113281 C 172.777344 205.738281 172.503906 203.367188 172.707031 200.992188 C 172.867188 199.15625 173.675781 194.855469 176.460938 196.054688 C 179.769531 197.476562 179.777344 201.375 179.792969 204.414062 C 179.800781 205.820312 179.917969 207.980469 181.65625 208.355469 C 183.191406 208.683594 182.828125 205.6875 182.832031 204.816406 C 182.894531 196.144531 181.972656 187.511719 181.25 178.882812 C 180.539062 170.390625 180.007812 161.835938 180.828125 153.332031 C 181.195312 149.558594 181.796875 145.761719 182.542969 142.042969 C 183.207031 138.742188 184.449219 135.589844 187.054688 133.339844 C 188.5 132.089844 190.621094 134.191406 189.164062 135.453125 C 187.890625 136.554688 187.050781 137.875 186.453125 139.316406 C 187.863281 138.6875 189.265625 138.042969 190.652344 137.367188 C 198.761719 133.429688 206.574219 128.8125 213.863281 123.507812 C 215.816406 122.085938 217.761719 120.636719 219.6875 119.15625 C 213.34375 116.664062 206.617188 115.285156 199.796875 115.113281 C 192.484375 114.929688 185.171875 116.078125 178.273438 118.519531 C 171.910156 120.773438 165.25 124.03125 161.152344 129.59375 C 157.183594 134.984375 155.269531 141.738281 153.535156 148.113281 C 151.285156 156.378906 149.835938 164.855469 149.246094 173.398438 C 149.136719 174.941406 148.46875 177.835938 149.675781 179.078125 C 150.679688 180.109375 152.433594 178.042969 153.410156 177.609375 C 155.71875 176.585938 157.511719 178.046875 157.886719 180.359375 C 158.261719 182.683594 157.992188 185.183594 158.011719 187.527344 C 158.042969 191.945312 158.0625 196.359375 158.074219 200.773438 C 158.101562 209.664062 158.058594 218.550781 158.0625 227.441406 C 158.070312 236.070312 157.847656 244.6875 157.757812 253.316406 C 157.691406 259.761719 158.007812 266.855469 154.425781 272.535156 C 150.585938 278.628906 143.300781 281.640625 136.589844 283.304688 C 132.558594 284.304688 128.359375 284.53125 124.28125 285.304688 C 121.976562 285.746094 119.644531 286.273438 117.464844 287.164062 C 115.929688 287.792969 114.183594 288.691406 113.316406 290.164062 C 112.167969 292.113281 113.664062 294.609375 111.820312 296.46875 C 109.929688 298.378906 106.84375 298.894531 104.3125 299.335938 C 102.957031 299.570312 101.589844 299.753906 100.242188 300.03125 C 98.589844 300.367188 96.976562 300.90625 95.34375 301.328125 C 91.316406 302.367188 87.226562 303.144531 83.199219 304.171875 C 80.335938 304.902344 76.800781 306.175781 76.285156 309.527344 C 75.84375 312.359375 77.617188 315.351562 79.851562 316.96875 C 82.863281 319.148438 86.867188 319.46875 90.460938 319.519531 C 94.171875 319.570312 97.875 319.324219 101.566406 319.867188 C 105.023438 320.375 108.945312 321.710938 111.0625 324.675781 C 113.132812 327.574219 112.316406 331.253906 110.546875 334.074219 C 107.636719 338.703125 98.113281 343.910156 103.269531 350.195312 C 105.375 352.761719 108.597656 354.191406 111.640625 355.304688 C 115.417969 356.683594 119.339844 357.644531 123.3125 358.269531 C 131.292969 359.53125 139.457031 359.414062 147.5 358.929688 C 151.46875 358.691406 155.4375 358.371094 159.394531 358.003906 C 162.277344 357.734375 165.796875 357.324219 167.90625 355.109375 C 169.1875 353.769531 169.453125 351.851562 170.183594 350.207031 C 170.796875 348.824219 171.730469 347.636719 172.925781 346.707031 C 175.296875 344.855469 178.285156 344.175781 181.210938 343.800781 C 184.171875 343.417969 187.183594 343.511719 190.089844 342.765625 C 192.5 342.144531 195.371094 341.019531 196.5625 338.648438 C 197.320312 337.144531 196.984375 335.554688 196.746094 333.960938 C 196.488281 332.226562 196.46875 330.5625 197.226562 328.945312 C 198.457031 326.308594 201.277344 324.898438 203.902344 324.007812 C 207.148438 322.910156 210.554688 322.40625 213.804688 321.300781 C 217.304688 320.109375 221.085938 318.621094 223.976562 316.257812 C 226.253906 314.398438 228.011719 311.503906 226.304688 308.65625 Z M 103.359375 316.957031 C 101.925781 318.007812 99.992188 317.582031 98.335938 317.578125 C 96.253906 317.574219 94.160156 317.601562 92.085938 317.371094 C 88.585938 316.976562 83.964844 315.921875 81.9375 312.695312 C 81.871094 312.617188 81.8125 312.53125 81.769531 312.433594 C 81.695312 312.304688 81.652344 312.175781 81.617188 312.050781 C 80.890625 310 81.542969 307.707031 83.734375 306.832031 C 85.589844 306.09375 87.171875 306.863281 88.652344 307.972656 C 90.113281 309.070312 91.875 309.378906 93.640625 309.769531 C 95.84375 310.261719 98.046875 310.539062 100.289062 310.773438 C 101.746094 310.921875 103.402344 311.414062 104.265625 312.699219 C 105.214844 314.113281 104.699219 315.976562 103.359375 316.957031 Z M 123.363281 353.347656 C 119.769531 352.414062 116.761719 349.800781 115.339844 346.371094 C 113.855469 342.785156 114.34375 338.492188 116.527344 335.296875 C 116.984375 334.628906 117.832031 334.328125 118.574219 334.757812 C 119.234375 335.144531 119.5625 336.136719 119.109375 336.800781 C 117.40625 339.292969 116.933594 342.550781 118.132812 345.363281 C 119.210938 347.902344 121.511719 349.78125 124.15625 350.46875 C 126.019531 350.949219 125.226562 353.832031 123.363281 353.347656 Z M 190.773438 337.882812 C 189.003906 339.578125 186.777344 340.535156 184.417969 341.09375 C 181.847656 341.699219 179.132812 342.257812 176.484375 342.285156 C 175.289062 342.300781 173.859375 342.277344 172.976562 341.328125 C 172.234375 340.527344 172.007812 339.363281 172.304688 338.324219 C 173.046875 335.71875 176.210938 334.953125 178.4375 334.230469 C 181.007812 333.351562 183.25 331.847656 185.167969 329.941406 C 186.480469 328.640625 187.476562 327.085938 188.742188 325.746094 C 189.792969 324.636719 191.304688 323.34375 192.953125 323.894531 C 194.613281 324.449219 195.007812 326.320312 194.949219 327.871094 C 194.820312 331.507812 193.421875 335.347656 190.773438 337.882812 Z M 198.136719 296.601562 C 196.066406 296.730469 193.953125 296.472656 191.972656 295.855469 C 191.175781 295.605469 190.746094 294.828125 190.929688 294.015625 C 191.105469 293.25 192.023438 292.742188 192.769531 292.972656 C 193.234375 293.117188 193.703125 293.246094 194.179688 293.347656 C 194.410156 293.398438 194.636719 293.441406 194.871094 293.480469 C 194.976562 293.5 195.082031 293.515625 195.191406 293.53125 C 195.199219 293.535156 195.199219 293.535156 195.207031 293.535156 C 195.226562 293.535156 195.242188 293.539062 195.277344 293.542969 C 196.226562 293.652344 197.183594 293.675781 198.136719 293.613281 C 198.972656 293.558594 199.597656 294.339844 199.632812 295.105469 C 199.667969 295.949219 198.917969 296.550781 198.136719 296.601562 Z M 200.015625 290.902344 C 189.296875 292.316406 178.285156 290.160156 168.839844 284.917969 C 167.15625 283.984375 168.664062 281.40625 170.34375 282.339844 C 179.367188 287.34375 189.796875 289.261719 200.015625 287.914062 C 200.8125 287.8125 201.515625 288.683594 201.507812 289.410156 C 201.5 290.292969 200.820312 290.796875 200.015625 290.902344 Z M 177.953125 270.253906 C 177.929688 270.265625 177.910156 270.28125 177.886719 270.296875 C 177.902344 270.285156 177.917969 270.277344 177.949219 270.257812 C 177.886719 270.304688 177.828125 270.335938 177.867188 270.308594 C 177.855469 270.316406 177.84375 270.324219 177.832031 270.332031 C 177.789062 270.339844 177.753906 270.347656 177.734375 270.355469 C 177.675781 270.375 177.617188 270.394531 177.5625 270.410156 C 177.472656 270.410156 177.375 270.414062 177.285156 270.417969 C 177.25 270.417969 177.09375 270.402344 177.054688 270.398438 C 177.011719 270.390625 176.972656 270.382812 176.929688 270.375 C 176.8125 270.347656 176.695312 270.300781 176.578125 270.273438 C 176.574219 270.273438 176.574219 270.273438 176.570312 270.269531 C 176.5625 270.265625 176.5625 270.265625 176.554688 270.261719 C 176.472656 270.214844 176.390625 270.167969 176.304688 270.121094 C 176.269531 270.101562 176.234375 270.074219 176.199219 270.050781 C 176.1875 270.039062 176.179688 270.03125 176.160156 270.015625 C 176.109375 269.957031 175.894531 269.714844 175.871094 269.710938 C 175.785156 269.589844 175.699219 269.460938 175.625 269.332031 C 175.585938 269.261719 175.453125 268.949219 175.441406 268.933594 C 175.359375 268.710938 175.285156 268.492188 175.226562 268.261719 C 174.964844 267.269531 174.921875 266.5625 174.949219 265.324219 C 174.960938 264.824219 174.992188 264.320312 175.042969 263.824219 C 175.054688 263.707031 175.066406 263.589844 175.078125 263.476562 C 175.082031 263.441406 175.085938 263.417969 175.089844 263.394531 C 175.121094 263.175781 175.15625 262.960938 175.195312 262.742188 C 175.308594 262.15625 175.417969 261.679688 175.699219 261.273438 C 175.726562 261.242188 175.816406 261.132812 175.839844 261.113281 C 175.882812 261.078125 175.886719 261.0625 175.878906 261.058594 C 175.90625 261.050781 175.933594 261.039062 175.976562 261.023438 C 175.761719 261.109375 176.207031 261.015625 176.054688 261.007812 C 176.316406 261.019531 176.128906 260.972656 176.378906 261.066406 C 177.128906 261.351562 177.519531 262.421875 177.769531 263.195312 C 178.007812 263.933594 178.1875 264.691406 178.328125 265.453125 C 178.363281 265.648438 178.390625 265.847656 178.425781 266.046875 C 178.429688 266.070312 178.433594 266.078125 178.4375 266.09375 C 178.4375 266.109375 178.4375 266.113281 178.441406 266.132812 C 178.453125 266.234375 178.464844 266.335938 178.476562 266.441406 C 178.523438 266.90625 178.554688 267.375 178.554688 267.84375 C 178.554688 268.039062 178.550781 268.238281 178.539062 268.4375 C 178.53125 268.519531 178.503906 268.78125 178.5 268.839844 C 178.472656 269.015625 178.445312 269.1875 178.398438 269.359375 C 178.375 269.460938 178.234375 269.820312 178.253906 269.804688 C 178.203125 269.898438 178.15625 269.996094 178.101562 270.089844 C 178.089844 270.113281 178.085938 270.125 178.078125 270.140625 C 178.0625 270.152344 178.039062 270.171875 178 270.214844 C 177.984375 270.226562 177.96875 270.242188 177.953125 270.253906 Z M 177.734375 270.355469 C 177.765625 270.347656 177.796875 270.34375 177.828125 270.335938 C 177.820312 270.339844 177.808594 270.347656 177.800781 270.351562 C 177.730469 270.40625 177.667969 270.386719 177.734375 270.355469 Z M 175.09375 263.371094 C 175.105469 263.277344 175.109375 263.261719 175.09375 263.371094 Z M 177.828125 270.335938 C 177.828125 270.332031 177.832031 270.332031 177.832031 270.332031 C 177.855469 270.328125 177.871094 270.320312 177.90625 270.316406 C 177.882812 270.320312 177.851562 270.328125 177.828125 270.335938 Z M 177.828125 270.335938 " fill-opacity="1" fill-rule="nonzero"/><path fill="#fff3d5" d="M 211.382812 207.542969 C 211.609375 208.15625 212.175781 210.089844 210.945312 209.859375 C 209.78125 209.640625 208.640625 207.828125 207.988281 206.949219 C 206.4375 204.871094 204.9375 202.757812 203.457031 200.628906 C 199.589844 195.066406 195.878906 189.394531 191.941406 183.882812 C 191.132812 182.742188 190.292969 181.578125 190.136719 180.203125 C 192.085938 179.148438 194.335938 181.675781 195.324219 183.082031 C 197.050781 185.542969 198.6875 188.070312 200.363281 190.566406 C 203.144531 194.703125 205.941406 198.832031 208.753906 202.945312 C 209.738281 204.386719 210.769531 205.902344 211.382812 207.542969 Z M 217.746094 220.160156 C 217.652344 220.351562 217.703125 220.265625 217.746094 220.160156 Z M 216.136719 217.074219 C 216.195312 217.050781 216.167969 217.058594 216.136719 217.074219 Z M 215 219.0625 C 215.007812 219.023438 215.011719 219 215.019531 218.96875 C 215.019531 218.96875 215.019531 218.964844 215.019531 218.960938 C 215.011719 218.996094 215.007812 219.027344 215 219.0625 Z M 217.898438 219.027344 C 217.851562 218.792969 217.78125 218.566406 217.707031 218.339844 C 217.707031 218.339844 217.707031 218.339844 217.707031 218.335938 C 217.664062 218.25 217.621094 218.164062 217.574219 218.082031 C 217.515625 217.980469 217.449219 217.882812 217.386719 217.785156 C 217.371094 217.769531 217.359375 217.75 217.34375 217.734375 C 217.28125 217.664062 217.210938 217.59375 217.140625 217.527344 C 217.121094 217.507812 217.089844 217.484375 217.058594 217.457031 C 216.910156 217.355469 216.757812 217.261719 216.597656 217.179688 C 216.527344 217.15625 216.453125 217.132812 216.382812 217.113281 C 216.367188 217.109375 216.34375 217.105469 216.316406 217.097656 C 216.289062 217.097656 216.265625 217.097656 216.25 217.097656 C 216.214844 217.09375 216.183594 217.097656 216.152344 217.097656 C 216.117188 217.109375 216.082031 217.121094 216.046875 217.128906 C 215.964844 217.183594 215.859375 217.261719 215.777344 217.300781 C 215.734375 217.339844 215.691406 217.382812 215.648438 217.425781 C 215.621094 217.453125 215.597656 217.484375 215.570312 217.515625 C 215.484375 217.640625 215.40625 217.773438 215.335938 217.90625 C 215.316406 217.945312 215.296875 217.984375 215.277344 218.023438 C 215.242188 218.152344 215.179688 218.285156 215.144531 218.414062 C 215.105469 218.542969 215.074219 218.671875 215.046875 218.800781 C 215.042969 218.832031 215.03125 218.894531 215.019531 218.96875 C 215.003906 219.109375 215 219.25 214.996094 219.386719 C 214.996094 219.53125 215.007812 219.671875 215.015625 219.816406 C 215.023438 219.851562 215.03125 219.890625 215.039062 219.925781 C 215.066406 220.070312 215.105469 220.214844 215.15625 220.355469 C 215.160156 220.367188 215.164062 220.378906 215.167969 220.390625 C 215.175781 220.414062 215.1875 220.433594 215.199219 220.453125 C 215.277344 220.609375 215.375 220.753906 215.46875 220.898438 C 215.523438 220.957031 215.570312 221.011719 215.628906 221.066406 C 215.648438 221.089844 215.734375 221.148438 215.789062 221.195312 C 215.824219 221.21875 215.863281 221.242188 215.898438 221.261719 C 215.984375 221.285156 216.09375 221.320312 216.164062 221.339844 C 216.207031 221.34375 216.246094 221.34375 216.289062 221.34375 C 216.320312 221.34375 216.355469 221.339844 216.386719 221.339844 C 216.496094 221.3125 216.601562 221.28125 216.710938 221.246094 C 216.75 221.226562 216.789062 221.207031 216.828125 221.1875 C 216.921875 221.132812 217.023438 221.046875 217.125 220.992188 C 217.171875 220.953125 217.214844 220.910156 217.261719 220.867188 C 217.339844 220.785156 217.414062 220.699219 217.488281 220.613281 C 217.492188 220.605469 217.5 220.597656 217.503906 220.589844 C 217.546875 220.523438 217.589844 220.457031 217.628906 220.390625 C 217.675781 220.304688 217.71875 220.21875 217.757812 220.132812 C 217.769531 220.109375 217.777344 220.085938 217.785156 220.066406 C 217.808594 219.988281 217.832031 219.910156 217.851562 219.832031 C 217.867188 219.769531 217.882812 219.707031 217.894531 219.640625 C 217.90625 219.496094 217.917969 219.351562 217.910156 219.203125 C 217.910156 219.191406 217.902344 219.097656 217.898438 219.027344 Z M 215.046875 218.800781 C 215.070312 218.667969 215.027344 218.847656 215.019531 218.953125 C 215.019531 218.957031 215.019531 218.957031 215.019531 218.960938 C 215.023438 218.917969 215.03125 218.875 215.039062 218.832031 C 215.042969 218.824219 215.046875 218.8125 215.046875 218.800781 Z M 191.929688 326.941406 C 191.929688 326.925781 191.921875 326.914062 191.921875 326.898438 C 191.46875 327.207031 191.074219 327.617188 190.703125 328.023438 C 189.855469 328.945312 189.140625 329.972656 188.335938 330.929688 C 185.949219 333.765625 182.730469 335.914062 179.234375 337.109375 C 178.121094 337.472656 176.929688 337.742188 175.933594 338.382812 C 175.605469 338.59375 175.449219 338.859375 175.183594 339.117188 C 175.148438 339.152344 175.148438 339.1875 175.15625 339.226562 C 175.160156 339.234375 175.167969 339.246094 175.171875 339.261719 C 175.199219 339.269531 175.242188 339.277344 175.308594 339.269531 C 176.5 339.152344 177.699219 339.277344 178.902344 339.105469 C 180.050781 338.941406 181.191406 338.714844 182.324219 338.488281 C 184.269531 338.101562 186.269531 337.636719 187.890625 336.433594 C 189.183594 335.472656 190.171875 334.125 190.832031 332.667969 C 191.3125 331.601562 191.597656 330.433594 191.804688 329.285156 C 191.90625 328.722656 191.96875 328.152344 191.96875 327.578125 C 191.96875 327.421875 191.96875 327.261719 191.953125 327.105469 C 191.953125 327.101562 191.933594 326.980469 191.929688 326.941406 Z M 191.855469 326.636719 C 191.777344 326.359375 191.808594 326.566406 191.855469 326.636719 Z M 175.164062 339.257812 C 175.164062 339.246094 175.160156 339.238281 175.15625 339.226562 C 175.125 339.175781 175.089844 339.230469 175.164062 339.257812 Z M 191.855469 326.640625 C 191.863281 326.652344 191.871094 326.65625 191.878906 326.65625 C 191.917969 326.644531 191.875 326.636719 191.855469 326.640625 Z M 175.183594 339.335938 C 175.179688 339.304688 175.175781 339.28125 175.171875 339.261719 C 175.167969 339.257812 175.167969 339.257812 175.164062 339.257812 C 175.171875 339.285156 175.183594 339.3125 175.183594 339.335938 Z M 101.175781 313.988281 C 100.050781 313.527344 98.667969 313.617188 97.476562 313.460938 C 95.859375 313.246094 94.253906 312.96875 92.664062 312.609375 C 91.226562 312.285156 89.644531 312.003906 88.320312 311.332031 C 87.40625 310.867188 86.664062 309.90625 85.691406 309.578125 C 84.839844 309.289062 83.949219 310.027344 84.347656 310.925781 C 85.011719 312.105469 86.347656 312.800781 87.570312 313.28125 C 89.234375 313.933594 91.007812 314.300781 92.785156 314.453125 C 94.328125 314.582031 95.875 314.589844 97.421875 314.589844 C 98.195312 314.59375 98.972656 314.574219 99.742188 314.613281 C 100.214844 314.640625 100.832031 314.785156 101.296875 314.660156 C 102.058594 314.453125 101.742188 314.21875 101.175781 313.988281 Z M 101.175781 313.988281 " fill-opacity="1" fill-rule="nonzero"/><g clip-path="url(#d1421981a6)"><path fill="#4d4d4d" d="M 176.328125 258.035156 C 174.027344 257.828125 172.695312 259.972656 172.316406 261.949219 C 171.902344 264.25 171.75 266.710938 172.328125 268.996094 C 172.984375 271.589844 175.074219 273.730469 177.921875 273.359375 C 182.921875 272.707031 181.699219 265.34375 180.542969 262.085938 C 179.84375 260.117188 178.585938 258.238281 176.328125 258.035156 Z M 175.09375 263.371094 C 175.105469 263.277344 175.109375 263.261719 175.09375 263.371094 Z M 178.539062 268.4375 C 178.53125 268.519531 178.503906 268.78125 178.5 268.839844 C 178.472656 269.015625 178.445312 269.1875 178.398438 269.359375 C 178.375 269.460938 178.234375 269.820312 178.253906 269.804688 C 178.203125 269.898438 178.15625 269.996094 178.101562 270.089844 C 178.089844 270.113281 178.085938 270.125 178.078125 270.140625 C 178.0625 270.152344 178.039062 270.171875 178 270.214844 C 177.984375 270.226562 177.96875 270.242188 177.953125 270.253906 C 177.929688 270.265625 177.910156 270.28125 177.886719 270.296875 C 177.902344 270.285156 177.917969 270.277344 177.949219 270.257812 C 177.886719 270.304688 177.828125 270.335938 177.867188 270.308594 C 177.855469 270.316406 177.84375 270.324219 177.832031 270.332031 C 177.855469 270.328125 177.871094 270.320312 177.90625 270.316406 C 177.882812 270.320312 177.851562 270.328125 177.828125 270.335938 C 177.820312 270.339844 177.808594 270.347656 177.800781 270.351562 C 177.730469 270.40625 177.667969 270.386719 177.734375 270.355469 C 177.675781 270.375 177.617188 270.394531 177.5625 270.410156 C 177.472656 270.410156 177.375 270.414062 177.285156 270.417969 C 177.25 270.417969 177.09375 270.402344 177.054688 270.398438 C 177.011719 270.390625 176.972656 270.382812 176.929688 270.375 C 176.8125 270.347656 176.695312 270.300781 176.578125 270.273438 C 176.574219 270.273438 176.574219 270.273438 176.570312 270.269531 C 176.5625 270.265625 176.5625 270.265625 176.554688 270.261719 C 176.472656 270.214844 176.390625 270.167969 176.304688 270.121094 C 176.269531 270.101562 176.234375 270.074219 176.199219 270.050781 C 176.1875 270.039062 176.179688 270.03125 176.160156 270.015625 C 176.109375 269.957031 175.894531 269.714844 175.871094 269.710938 C 175.785156 269.589844 175.699219 269.460938 175.625 269.332031 C 175.585938 269.261719 175.453125 268.949219 175.441406 268.933594 C 175.359375 268.710938 175.285156 268.492188 175.226562 268.261719 C 174.964844 267.269531 174.921875 266.5625 174.949219 265.324219 C 174.960938 264.824219 174.992188 264.320312 175.042969 263.824219 C 175.054688 263.707031 175.066406 263.589844 175.078125 263.476562 C 175.082031 263.441406 175.085938 263.417969 175.089844 263.394531 C 175.121094 263.175781 175.15625 262.960938 175.195312 262.742188 C 175.308594 262.15625 175.417969 261.679688 175.699219 261.273438 C 175.726562 261.242188 175.816406 261.132812 175.839844 261.113281 C 175.882812 261.078125 175.886719 261.0625 175.878906 261.058594 C 175.90625 261.050781 175.933594 261.039062 175.976562 261.023438 C 175.761719 261.109375 176.207031 261.015625 176.054688 261.007812 C 176.316406 261.019531 176.128906 260.972656 176.378906 261.066406 C 177.128906 261.351562 177.519531 262.421875 177.769531 263.195312 C 178.007812 263.933594 178.1875 264.691406 178.328125 265.453125 C 178.363281 265.648438 178.390625 265.847656 178.425781 266.046875 C 178.429688 266.070312 178.433594 266.078125 178.4375 266.09375 C 178.4375 266.109375 178.4375 266.113281 178.441406 266.132812 C 178.453125 266.234375 178.464844 266.335938 178.476562 266.441406 C 178.523438 266.90625 178.554688 267.375 178.554688 267.84375 C 178.554688 268.039062 178.550781 268.238281 178.539062 268.4375 Z M 177.734375 270.355469 C 177.753906 270.347656 177.789062 270.339844 177.832031 270.332031 C 177.832031 270.332031 177.828125 270.332031 177.828125 270.335938 C 177.796875 270.34375 177.765625 270.347656 177.734375 270.355469 Z M 301.121094 174.890625 C 298.964844 169.566406 296.167969 164.480469 293.472656 159.417969 C 290.132812 153.132812 286.691406 146.902344 283.246094 140.675781 C 273.996094 123.980469 264.996094 107.152344 255.617188 90.53125 C 258.3125 84.328125 260.777344 78.023438 263.003906 71.632812 C 266.03125 62.933594 269.09375 53.949219 269.996094 44.738281 C 270.785156 36.65625 269.433594 27.980469 264.460938 21.351562 C 259.464844 14.695312 251.625 11.710938 243.460938 11.644531 C 227.4375 11.507812 213.210938 20.851562 202.253906 31.765625 C 196.445312 37.554688 191.304688 43.957031 186.402344 50.519531 C 180.710938 58.140625 175.324219 65.988281 170.261719 74.039062 C 168.996094 76.054688 167.75 78.082031 166.527344 80.117188 C 166.15625 80.730469 166.28125 81.324219 166.636719 81.742188 C 161.003906 85.949219 155.8125 90.714844 151.273438 96.015625 C 145.46875 102.789062 140.949219 110.699219 139.546875 119.601562 C 138.898438 123.722656 138.746094 128.160156 140.183594 132.140625 C 141.601562 136.070312 144.359375 139.113281 148.058594 141.039062 C 149.339844 141.703125 150.675781 142.140625 152.066406 142.351562 C 150.550781 147.113281 149.375 152.003906 148.429688 156.875 C 147.675781 160.765625 147.09375 164.691406 146.675781 168.632812 C 146.492188 170.375 146.34375 172.125 146.226562 173.878906 C 146.105469 175.699219 145.835938 177.6875 146.476562 179.445312 C 146.988281 180.84375 148.132812 182.027344 149.617188 182.347656 C 151.328125 182.714844 152.574219 181.664062 153.882812 180.769531 C 154.109375 180.617188 154.542969 180.445312 154.796875 180.3125 C 154.84375 180.488281 154.960938 180.839844 154.980469 180.96875 C 155.066406 181.484375 155.058594 182.03125 155.058594 182.550781 C 155.0625 189.371094 155.082031 196.191406 155.09375 203.015625 C 155.128906 219.234375 155.210938 235.464844 154.800781 251.679688 C 154.652344 257.527344 155.320312 264 152.722656 269.441406 C 149.863281 275.429688 143.246094 278.398438 137.175781 280.066406 C 133.382812 281.109375 129.480469 281.425781 125.605469 282.054688 C 121.570312 282.710938 117.136719 283.511719 113.652344 285.78125 C 112.175781 286.742188 110.898438 288 110.261719 289.671875 C 109.964844 290.449219 109.835938 291.285156 109.851562 292.121094 C 109.863281 292.710938 110.144531 293.621094 109.875 294.171875 C 109.679688 294.574219 109.050781 294.867188 108.683594 295.054688 C 106.507812 296.167969 103.832031 296.40625 101.457031 296.792969 C 98.324219 297.304688 95.308594 298.28125 92.230469 299.027344 C 88.730469 299.875 85.164062 300.511719 81.695312 301.480469 C 78.835938 302.277344 75.921875 303.609375 74.34375 306.261719 C 71.285156 311.386719 74.945312 317.972656 79.785156 320.398438 C 86.082031 323.558594 93.199219 321.988281 99.925781 322.648438 C 102.894531 322.941406 106.945312 323.816406 108.703125 326.503906 C 110.515625 329.273438 108.125 332.757812 106.246094 334.785156 C 104.148438 337.046875 101.652344 338.960938 100.09375 341.679688 C 98.640625 344.21875 98.347656 347.191406 99.574219 349.878906 C 102.191406 355.617188 109.527344 357.992188 115.105469 359.550781 C 129.371094 363.53125 144.496094 362.335938 159.050781 361.019531 C 161.964844 360.757812 164.96875 360.386719 167.597656 359.011719 C 168.800781 358.382812 169.867188 357.507812 170.6875 356.421875 C 171.695312 355.082031 172.074219 353.507812 172.667969 351.96875 C 174.804688 346.457031 181.894531 346.75 186.785156 346.324219 C 191.625 345.902344 197.847656 344.128906 199.632812 339.015625 C 200.125 337.617188 200.082031 336.160156 199.871094 334.710938 C 199.640625 333.105469 199.195312 331.429688 200.070312 329.941406 C 201.300781 327.839844 204.117188 327.003906 206.308594 326.398438 C 209.585938 325.496094 212.886719 324.847656 216.082031 323.652344 C 219.179688 322.488281 222.363281 321.144531 225.046875 319.179688 C 227.480469 317.398438 229.632812 314.992188 229.949219 311.871094 C 230.21875 309.207031 229.003906 306.691406 227.035156 304.9375 C 224.992188 303.121094 222.378906 301.964844 219.738281 301.328125 C 217.929688 300.894531 216.066406 300.851562 214.238281 300.539062 C 213.460938 300.40625 212.597656 300.261719 211.882812 299.929688 C 211.71875 299.851562 211.574219 299.75 211.417969 299.664062 C 211.589844 299.757812 211.167969 299.578125 211.390625 299.664062 C 211.253906 299.613281 211.324219 299.578125 211.378906 299.503906 C 212.113281 298.425781 213.101562 297.613281 213.949219 296.609375 C 215.066406 295.292969 215.757812 293.691406 215.945312 291.972656 C 216.105469 290.496094 215.902344 288.90625 215.050781 287.65625 C 214.132812 286.308594 212.59375 285.726562 211.085938 285.316406 C 207.300781 284.289062 203.347656 284.320312 199.488281 283.765625 C 195.71875 283.230469 191.9375 282.542969 188.183594 281.863281 C 184.941406 281.277344 181.714844 280.5625 178.644531 279.351562 C 173.714844 277.410156 168.359375 274.109375 166.136719 269.082031 C 165.386719 267.386719 165.363281 266.441406 165.332031 264.597656 C 165.292969 262.421875 165.398438 260.242188 165.632812 258.078125 C 165.828125 256.289062 166.078125 254.347656 166.773438 252.679688 C 166.90625 252.359375 167.074219 252.058594 167.265625 251.769531 C 167.261719 251.773438 167.382812 251.671875 167.449219 251.613281 C 167.546875 251.609375 167.992188 251.488281 168.128906 251.515625 C 168.347656 251.5625 168.449219 251.699219 168.625 251.953125 C 169.570312 253.339844 169.527344 255.273438 170.300781 256.761719 C 171.574219 259.214844 174.398438 259.085938 175.960938 256.972656 C 176.730469 255.929688 177.136719 254.714844 177.3125 253.445312 C 177.609375 251.328125 177.816406 249.191406 177.984375 247.0625 C 178.304688 242.957031 178.414062 238.839844 178.320312 234.726562 C 178.226562 230.777344 177.9375 226.832031 177.460938 222.910156 C 176.972656 218.929688 176.292969 214.96875 175.996094 210.964844 C 175.824219 208.636719 175.703125 206.269531 175.636719 203.929688 C 175.605469 202.773438 175.585938 201.585938 175.753906 200.4375 C 175.792969 200.152344 175.871094 199.683594 175.992188 199.28125 C 177.386719 200.773438 176.707031 204.339844 176.882812 205.957031 C 177.164062 208.554688 178.738281 211.058594 181.542969 211.347656 C 184.601562 211.664062 185.722656 208.8125 185.800781 206.257812 C 185.882812 203.472656 185.8125 200.683594 185.683594 197.898438 C 188.386719 202.042969 191.089844 206.1875 193.796875 210.335938 C 195.4375 212.851562 197.082031 215.371094 198.726562 217.890625 C 199.546875 219.148438 200.367188 220.410156 201.191406 221.667969 C 201.648438 222.367188 202.105469 223.066406 202.558594 223.765625 C 202.96875 224.394531 203.339844 225.226562 203.890625 225.746094 C 204.773438 226.585938 206.628906 226.917969 207.726562 227.273438 C 210.738281 228.246094 213.824219 229.003906 216.933594 229.578125 C 226.746094 231.398438 236.917969 231.449219 246.664062 229.191406 C 257.328125 226.71875 266.878906 221.308594 275.277344 214.386719 C 279.324219 211.046875 283.074219 207.375 286.65625 203.542969 C 289.789062 200.191406 292.960938 196.882812 295.75 193.226562 C 299.558594 188.230469 303.707031 181.277344 301.121094 174.890625 Z M 184.214844 58.558594 C 189.023438 51.804688 194.011719 45.144531 199.546875 38.96875 C 209.523438 27.835938 221.886719 17.640625 237.054688 15.136719 C 244.582031 13.894531 253.238281 14.683594 259.167969 19.949219 C 264.917969 25.058594 267.253906 32.964844 267.230469 40.460938 C 267.203125 49.566406 264.25 58.488281 261.414062 67.042969 C 259.144531 73.886719 256.585938 80.632812 253.765625 87.269531 C 252.867188 85.679688 251.96875 84.089844 251.0625 82.503906 C 250.890625 82.199219 250.664062 82.003906 250.414062 81.890625 C 250.378906 81.4375 250.324219 80.984375 250.242188 80.53125 C 249.589844 76.839844 247.46875 73.523438 244.882812 70.878906 C 231.75 57.460938 211.023438 60.933594 195.105469 66.578125 C 186.640625 69.578125 178.429688 73.667969 170.882812 78.730469 C 175.105469 71.863281 179.539062 65.125 184.214844 58.558594 Z M 154.785156 180.167969 C 154.605469 180.089844 154.792969 180.027344 154.785156 180.167969 Z M 181.65625 208.355469 C 179.917969 207.980469 179.800781 205.820312 179.792969 204.414062 C 179.777344 201.375 179.769531 197.476562 176.460938 196.054688 C 173.675781 194.855469 172.867188 199.15625 172.707031 200.992188 C 172.503906 203.367188 172.777344 205.738281 172.871094 208.113281 C 173.035156 212.320312 173.609375 216.460938 174.175781 220.632812 C 174.78125 225.0625 175.179688 229.515625 175.3125 233.984375 C 175.445312 238.425781 175.332031 242.878906 174.976562 247.308594 C 174.8125 249.355469 174.742188 251.519531 174.289062 253.527344 C 174.128906 254.242188 173.828125 254.8125 173.410156 255.402344 C 173.332031 255.511719 173.164062 255.59375 173.109375 255.652344 C 173.089844 255.628906 173.066406 255.605469 173.050781 255.566406 C 172.339844 253.867188 172.132812 251.84375 171.097656 250.285156 C 169.914062 248.496094 167.414062 247.917969 165.636719 249.230469 C 164.160156 250.324219 163.617188 252.457031 163.25 254.15625 C 162.738281 256.519531 162.507812 258.953125 162.398438 261.363281 C 162.308594 263.277344 162.265625 265.226562 162.5 267.132812 C 162.824219 269.769531 164.234375 272.195312 165.898438 274.214844 C 169.71875 278.84375 175.644531 281.816406 181.339844 283.40625 C 185.332031 284.523438 189.453125 285.09375 193.535156 285.761719 C 195.621094 286.101562 197.691406 286.527344 199.789062 286.796875 C 201.890625 287.0625 204 287.1875 206.101562 287.429688 C 207.945312 287.644531 210.402344 287.816406 212.015625 288.832031 C 213.5 289.765625 213.121094 292.128906 212.46875 293.480469 C 211.378906 295.738281 207.65625 297.367188 208.453125 300.363281 C 208.980469 302.347656 211.324219 303.023438 213.097656 303.355469 C 215.105469 303.734375 217.082031 303.761719 218.945312 304.207031 C 221.652344 304.859375 224.804688 306.152344 226.304688 308.65625 C 228.011719 311.503906 226.253906 314.398438 223.976562 316.257812 C 221.085938 318.621094 217.304688 320.109375 213.804688 321.300781 C 210.554688 322.40625 207.148438 322.910156 203.902344 324.007812 C 201.277344 324.898438 198.457031 326.308594 197.226562 328.945312 C 196.46875 330.5625 196.488281 332.226562 196.746094 333.960938 C 196.984375 335.554688 197.320312 337.144531 196.5625 338.648438 C 195.371094 341.019531 192.5 342.144531 190.089844 342.765625 C 187.183594 343.511719 184.171875 343.417969 181.210938 343.800781 C 178.285156 344.175781 175.296875 344.855469 172.925781 346.707031 C 171.730469 347.636719 170.796875 348.824219 170.183594 350.207031 C 169.453125 351.851562 169.1875 353.769531 167.90625 355.109375 C 165.796875 357.324219 162.277344 357.734375 159.394531 358.003906 C 155.4375 358.371094 151.46875 358.691406 147.5 358.929688 C 139.457031 359.414062 131.292969 359.53125 123.3125 358.269531 C 119.339844 357.644531 115.417969 356.683594 111.640625 355.304688 C 108.597656 354.191406 105.375 352.761719 103.269531 350.195312 C 98.113281 343.910156 107.636719 338.703125 110.546875 334.074219 C 112.316406 331.253906 113.132812 327.574219 111.0625 324.675781 C 108.945312 321.710938 105.023438 320.375 101.566406 319.867188 C 97.875 319.324219 94.171875 319.570312 90.460938 319.519531 C 86.867188 319.46875 82.863281 319.148438 79.851562 316.96875 C 77.617188 315.351562 75.84375 312.359375 76.285156 309.527344 C 76.800781 306.175781 80.335938 304.902344 83.199219 304.171875 C 87.226562 303.144531 91.316406 302.367188 95.34375 301.328125 C 96.976562 300.90625 98.589844 300.367188 100.242188 300.03125 C 101.589844 299.753906 102.957031 299.570312 104.3125 299.335938 C 106.84375 298.894531 109.929688 298.378906 111.820312 296.46875 C 113.664062 294.609375 112.167969 292.113281 113.316406 290.164062 C 114.183594 288.691406 115.929688 287.792969 117.464844 287.164062 C 119.644531 286.273438 121.976562 285.746094 124.28125 285.304688 C 128.359375 284.53125 132.558594 284.304688 136.589844 283.304688 C 143.300781 281.640625 150.585938 278.628906 154.425781 272.535156 C 158.007812 266.855469 157.691406 259.761719 157.757812 253.316406 C 157.847656 244.6875 158.070312 236.070312 158.0625 227.441406 C 158.058594 218.550781 158.101562 209.664062 158.074219 200.773438 C 158.0625 196.359375 158.042969 191.945312 158.011719 187.527344 C 157.992188 185.183594 158.261719 182.683594 157.886719 180.359375 C 157.511719 178.046875 155.71875 176.585938 153.410156 177.609375 C 152.433594 178.042969 150.679688 180.109375 149.675781 179.078125 C 148.46875 177.835938 149.136719 174.941406 149.246094 173.398438 C 149.835938 164.855469 151.285156 156.378906 153.535156 148.113281 C 155.269531 141.738281 157.183594 134.984375 161.152344 129.59375 C 165.25 124.03125 171.910156 120.773438 178.273438 118.519531 C 185.171875 116.078125 192.484375 114.929688 199.796875 115.113281 C 206.617188 115.285156 213.34375 116.664062 219.6875 119.15625 C 217.761719 120.636719 215.816406 122.085938 213.863281 123.507812 C 206.574219 128.8125 198.761719 133.429688 190.652344 137.367188 C 189.265625 138.042969 187.863281 138.6875 186.453125 139.316406 C 187.050781 137.875 187.890625 136.554688 189.164062 135.453125 C 190.621094 134.191406 188.5 132.089844 187.054688 133.339844 C 184.449219 135.589844 183.207031 138.742188 182.542969 142.042969 C 181.796875 145.761719 181.195312 149.558594 180.828125 153.332031 C 180.007812 161.835938 180.539062 170.390625 181.25 178.882812 C 181.972656 187.511719 182.894531 196.144531 182.832031 204.816406 C 182.828125 205.6875 183.191406 208.683594 181.65625 208.355469 Z M 297.472656 184.796875 C 295.53125 189.03125 292.53125 192.710938 289.445312 196.15625 C 286.375 199.582031 283.214844 202.964844 279.925781 206.179688 C 272.683594 213.257812 264.425781 219.597656 254.984375 223.433594 C 245.105469 227.445312 234.335938 228.621094 223.769531 227.566406 C 217.828125 226.96875 211.839844 225.703125 206.238281 223.601562 C 206.125 223.5625 206.015625 223.519531 205.90625 223.476562 C 205.992188 223.53125 205.964844 223.542969 205.894531 223.46875 C 205.800781 223.433594 205.703125 223.394531 205.609375 223.359375 C 205.546875 223.335938 205.484375 223.308594 205.421875 223.285156 C 205.402344 223.28125 205.386719 223.269531 205.367188 223.261719 C 205.648438 223.339844 205.800781 223.410156 205.886719 223.460938 C 205.824219 223.398438 205.746094 223.289062 205.6875 223.097656 C 205.507812 222.539062 204.917969 221.917969 204.589844 221.417969 C 204.226562 220.859375 203.859375 220.300781 203.496094 219.742188 C 202.582031 218.339844 201.667969 216.941406 200.757812 215.542969 C 197.46875 210.507812 194.183594 205.46875 190.898438 200.433594 C 189.253906 197.914062 187.609375 195.394531 185.96875 192.875 C 185.796875 192.617188 185.582031 192.445312 185.355469 192.335938 C 184.449219 179.585938 182.625 166.828125 183.75 154.042969 C 184.058594 150.535156 184.644531 147.046875 185.28125 143.585938 C 185.332031 143.304688 185.390625 143.027344 185.445312 142.753906 C 185.71875 142.792969 186.007812 142.765625 186.308594 142.636719 C 195.117188 138.8125 203.585938 134.160156 211.539062 128.777344 C 215.410156 126.152344 219.109375 123.292969 222.785156 120.40625 C 226.601562 117.410156 230.363281 114.332031 233.871094 110.972656 C 239.675781 105.414062 245.339844 98.84375 248.535156 91.390625 C 249.175781 89.890625 249.699219 88.339844 250.039062 86.757812 C 250.789062 88.082031 251.539062 89.402344 252.285156 90.730469 C 252.246094 90.816406 252.210938 90.90625 252.171875 90.996094 C 245.347656 106.386719 237.070312 121.136719 227.488281 134.980469 C 226.875 134.613281 226.203125 134.335938 225.492188 134.195312 C 223.5 133.792969 221.480469 134.289062 219.851562 135.496094 C 219.792969 135.539062 219.746094 135.585938 219.691406 135.632812 C 219.644531 135.664062 219.59375 135.695312 219.546875 135.730469 C 216.660156 137.984375 215.71875 142.277344 217.097656 145.617188 C 218.136719 148.132812 220.4375 149.789062 223.199219 149.769531 C 225.820312 149.75 228.230469 148.332031 229.714844 146.210938 C 231.53125 143.625 231.683594 139.894531 229.882812 137.261719 C 229.828125 137.179688 229.765625 137.101562 229.703125 137.019531 C 237.375 125.980469 244.222656 114.367188 250.160156 102.304688 C 256.820312 113.207031 263.25 124.25 269.441406 135.421875 C 270.371094 137.105469 272.953125 135.597656 272.019531 133.914062 C 265.742188 122.585938 259.21875 111.390625 252.460938 100.339844 C 252.199219 99.90625 251.824219 99.695312 251.433594 99.648438 C 251.925781 98.617188 252.429688 97.597656 252.910156 96.5625 C 253.3125 95.695312 253.691406 94.816406 254.082031 93.945312 C 262.179688 108.429688 270.066406 123.027344 278.101562 137.550781 C 284.347656 148.839844 290.804688 160.070312 296.421875 171.695312 C 297.320312 173.554688 298.121094 175.148438 298.730469 176.984375 C 298.8125 177.238281 298.871094 177.5 298.953125 177.753906 C 298.960938 177.78125 298.96875 177.8125 298.972656 177.847656 C 298.996094 178.179688 299 178.519531 298.988281 178.855469 C 298.929688 180.902344 298.320312 182.941406 297.472656 184.796875 Z M 221.816406 146.558594 C 221.640625 146.464844 221.457031 146.386719 221.285156 146.285156 C 221.191406 146.226562 221.097656 146.15625 221.003906 146.097656 C 220.980469 146.078125 220.957031 146.058594 220.933594 146.039062 C 220.765625 145.882812 220.609375 145.726562 220.453125 145.554688 C 220.4375 145.539062 220.421875 145.519531 220.410156 145.5 C 220.328125 145.382812 220.246094 145.265625 220.175781 145.144531 C 220.105469 145.03125 220.039062 144.910156 219.980469 144.792969 C 219.953125 144.738281 219.929688 144.683594 219.902344 144.632812 C 219.902344 144.628906 219.902344 144.628906 219.902344 144.628906 C 219.789062 144.335938 219.691406 144.039062 219.617188 143.734375 C 219.574219 143.558594 219.539062 143.378906 219.507812 143.195312 C 219.507812 143.195312 219.5 143.140625 219.496094 143.101562 C 219.492188 143.050781 219.476562 142.90625 219.476562 142.882812 C 219.441406 142.457031 219.449219 142.027344 219.492188 141.601562 C 219.488281 141.636719 219.472656 141.75 219.496094 141.574219 C 219.515625 141.460938 219.535156 141.347656 219.558594 141.238281 C 219.605469 141.011719 219.664062 140.792969 219.730469 140.574219 C 219.859375 140.164062 219.921875 140.015625 220.101562 139.671875 C 220.472656 138.972656 220.886719 138.480469 221.507812 137.96875 C 222.035156 137.597656 222.511719 137.335938 222.992188 137.195312 C 223.15625 137.144531 223.324219 137.105469 223.488281 137.070312 C 223.535156 137.0625 223.582031 137.054688 223.632812 137.046875 C 223.640625 137.046875 223.640625 137.046875 223.65625 137.046875 C 223.96875 137.027344 224.277344 137.023438 224.589844 137.054688 C 224.648438 137.0625 224.707031 137.074219 224.765625 137.085938 C 224.917969 137.125 225.070312 137.160156 225.21875 137.207031 C 225.320312 137.238281 225.421875 137.277344 225.519531 137.316406 C 225.542969 137.328125 225.695312 137.398438 225.765625 137.4375 C 224.871094 138.699219 223.976562 139.964844 223.058594 141.214844 C 221.921875 142.765625 224.511719 144.253906 225.636719 142.71875 C 226.375 141.714844 227.089844 140.691406 227.816406 139.675781 C 227.816406 139.679688 227.816406 139.679688 227.820312 139.683594 C 227.832031 139.722656 227.890625 139.875 227.90625 139.917969 C 227.960938 140.078125 228.007812 140.242188 228.046875 140.402344 C 228.082031 140.546875 228.109375 140.6875 228.136719 140.832031 C 228.140625 140.847656 228.140625 140.847656 228.144531 140.859375 C 228.15625 140.960938 228.164062 141.066406 228.171875 141.171875 C 228.1875 141.476562 228.183594 141.785156 228.15625 142.089844 C 228.136719 142.335938 228.101562 142.511719 227.996094 142.898438 C 227.929688 143.140625 227.847656 143.375 227.761719 143.609375 C 227.742188 143.648438 227.71875 143.707031 227.699219 143.746094 C 227.640625 143.871094 227.574219 143.992188 227.507812 144.113281 C 227.382812 144.335938 227.242188 144.539062 227.105469 144.75 C 227.09375 144.769531 227.085938 144.777344 227.082031 144.789062 C 227.074219 144.796875 227.070312 144.800781 227.058594 144.8125 C 226.960938 144.921875 226.867188 145.039062 226.761719 145.148438 C 226.609375 145.308594 226.449219 145.464844 226.28125 145.609375 C 226.257812 145.628906 226.125 145.734375 226.070312 145.78125 C 226.003906 145.824219 225.914062 145.886719 225.886719 145.90625 C 225.695312 146.035156 225.492188 146.152344 225.285156 146.261719 C 225.191406 146.308594 225.09375 146.355469 225 146.402344 C 224.972656 146.414062 224.960938 146.421875 224.949219 146.429688 C 224.929688 146.433594 224.90625 146.441406 224.867188 146.453125 C 224.667969 146.519531 224.472656 146.589844 224.269531 146.640625 C 224.152344 146.671875 224.035156 146.699219 223.914062 146.722656 C 223.878906 146.730469 223.75 146.746094 223.679688 146.757812 C 223.628906 146.765625 223.574219 146.769531 223.550781 146.769531 C 223.433594 146.777344 223.316406 146.78125 223.199219 146.785156 C 222.996094 146.785156 222.796875 146.761719 222.597656 146.753906 C 222.566406 146.746094 222.53125 146.742188 222.5 146.734375 C 222.402344 146.714844 222.304688 146.695312 222.210938 146.667969 C 222.113281 146.644531 222.019531 146.617188 221.921875 146.585938 C 221.769531 146.535156 221.527344 146.40625 221.816406 146.558594 Z M 224.617188 137.054688 C 224.617188 137.054688 224.621094 137.054688 224.625 137.054688 C 224.753906 137.066406 224.675781 137.0625 224.617188 137.054688 Z M 298.984375 177.898438 C 299 178.011719 299 178.101562 298.984375 177.898438 Z M 205.886719 223.460938 C 205.894531 223.46875 205.902344 223.472656 205.90625 223.476562 C 205.902344 223.472656 205.898438 223.472656 205.894531 223.46875 C 205.890625 223.46875 205.886719 223.464844 205.886719 223.460938 Z M 210.558594 200.332031 C 206.410156 194.457031 202.515625 188.394531 198.488281 182.433594 C 196.558594 179.578125 193.96875 176.441406 190.09375 177.136719 C 188.390625 177.4375 187.015625 178.410156 187.109375 180.257812 C 187.207031 182.183594 188.28125 183.863281 189.363281 185.390625 C 193.863281 191.691406 198.066406 198.199219 202.546875 204.511719 C 204.058594 206.644531 205.53125 208.964844 207.367188 210.84375 C 208.824219 212.335938 211.015625 213.679688 213.003906 212.320312 C 217.308594 209.378906 212.570312 203.179688 210.558594 200.332031 Z M 210.945312 209.859375 C 209.78125 209.640625 208.640625 207.828125 207.988281 206.949219 C 206.4375 204.871094 204.9375 202.757812 203.457031 200.628906 C 199.589844 195.066406 195.878906 189.394531 191.941406 183.882812 C 191.132812 182.742188 190.292969 181.578125 190.136719 180.203125 C 192.085938 179.148438 194.335938 181.675781 195.324219 183.082031 C 197.050781 185.542969 198.6875 188.070312 200.363281 190.566406 C 203.144531 194.703125 205.941406 198.832031 208.753906 202.945312 C 209.738281 204.386719 210.769531 205.902344 211.382812 207.542969 C 211.609375 208.15625 212.175781 210.089844 210.945312 209.859375 Z M 218.625 214.914062 C 217.882812 214.394531 216.917969 214.03125 215.996094 214.121094 C 215.050781 214.214844 214.191406 214.613281 213.539062 215.3125 C 212.40625 216.527344 211.851562 218.34375 212.046875 219.988281 C 212.175781 221.074219 212.546875 222.003906 213.234375 222.859375 C 213.796875 223.5625 214.632812 224.105469 215.527344 224.253906 C 217.441406 224.578125 219.304688 223.515625 220.238281 221.84375 C 220.820312 220.796875 220.984375 219.652344 220.816406 218.480469 C 220.613281 217.027344 219.792969 215.769531 218.625 214.914062 Z M 216.136719 217.074219 C 216.167969 217.058594 216.195312 217.050781 216.136719 217.074219 Z M 217.746094 220.160156 C 217.703125 220.265625 217.652344 220.351562 217.746094 220.160156 Z M 217.894531 219.640625 C 217.882812 219.707031 217.867188 219.769531 217.851562 219.832031 C 217.832031 219.910156 217.808594 219.988281 217.785156 220.066406 C 217.777344 220.085938 217.769531 220.109375 217.757812 220.132812 C 217.71875 220.21875 217.675781 220.304688 217.628906 220.390625 C 217.589844 220.457031 217.546875 220.523438 217.503906 220.589844 C 217.5 220.597656 217.492188 220.605469 217.488281 220.613281 C 217.414062 220.699219 217.339844 220.785156 217.261719 220.867188 C 217.214844 220.910156 217.171875 220.953125 217.125 220.992188 C 217.023438 221.046875 216.921875 221.132812 216.828125 221.1875 C 216.789062 221.207031 216.75 221.226562 216.710938 221.246094 C 216.601562 221.28125 216.496094 221.3125 216.386719 221.339844 C 216.355469 221.339844 216.320312 221.34375 216.289062 221.34375 C 216.246094 221.34375 216.207031 221.34375 216.164062 221.339844 C 216.09375 221.320312 215.984375 221.285156 215.898438 221.261719 C 215.863281 221.242188 215.824219 221.21875 215.789062 221.195312 C 215.734375 221.148438 215.648438 221.089844 215.628906 221.066406 C 215.570312 221.011719 215.523438 220.957031 215.46875 220.898438 C 215.375 220.753906 215.277344 220.609375 215.199219 220.453125 C 215.1875 220.433594 215.175781 220.414062 215.167969 220.390625 C 215.164062 220.378906 215.160156 220.367188 215.15625 220.355469 C 215.105469 220.214844 215.066406 220.070312 215.039062 219.925781 C 215.03125 219.890625 215.023438 219.851562 215.015625 219.816406 C 215.007812 219.671875 214.996094 219.53125 214.996094 219.386719 C 215 219.25 215.003906 219.109375 215.019531 218.96875 C 215.011719 219 215.007812 219.023438 215 219.0625 C 215.007812 219.027344 215.011719 218.996094 215.019531 218.960938 C 215.019531 218.957031 215.019531 218.957031 215.019531 218.953125 C 215.027344 218.847656 215.070312 218.667969 215.046875 218.800781 C 215.074219 218.671875 215.105469 218.542969 215.144531 218.414062 C 215.179688 218.285156 215.242188 218.152344 215.277344 218.023438 C 215.296875 217.984375 215.316406 217.945312 215.335938 217.90625 C 215.40625 217.773438 215.484375 217.640625 215.570312 217.515625 C 215.597656 217.484375 215.621094 217.453125 215.648438 217.425781 C 215.691406 217.382812 215.734375 217.339844 215.777344 217.300781 C 215.859375 217.261719 215.964844 217.183594 216.046875 217.128906 C 216.082031 217.121094 216.117188 217.109375 216.152344 217.097656 C 216.183594 217.097656 216.214844 217.09375 216.25 217.097656 C 216.265625 217.097656 216.289062 217.097656 216.316406 217.097656 C 216.34375 217.105469 216.367188 217.109375 216.382812 217.113281 C 216.453125 217.132812 216.527344 217.15625 216.597656 217.179688 C 216.757812 217.261719 216.910156 217.355469 217.058594 217.457031 C 217.089844 217.484375 217.121094 217.507812 217.140625 217.527344 C 217.210938 217.59375 217.28125 217.664062 217.34375 217.734375 C 217.359375 217.75 217.371094 217.769531 217.386719 217.785156 C 217.449219 217.882812 217.515625 217.980469 217.574219 218.082031 C 217.621094 218.164062 217.664062 218.25 217.707031 218.335938 C 217.707031 218.339844 217.707031 218.339844 217.707031 218.339844 C 217.78125 218.566406 217.851562 218.792969 217.898438 219.027344 C 217.902344 219.097656 217.910156 219.191406 217.910156 219.203125 C 217.917969 219.351562 217.90625 219.496094 217.894531 219.640625 Z M 215.046875 218.800781 C 215.042969 218.832031 215.03125 218.894531 215.019531 218.96875 C 215.019531 218.96875 215.019531 218.964844 215.019531 218.960938 C 215.023438 218.917969 215.03125 218.875 215.039062 218.832031 C 215.042969 218.824219 215.046875 218.8125 215.046875 218.800781 Z M 278.761719 147.285156 C 279.167969 148.015625 278.917969 148.882812 278.226562 149.328125 C 277.558594 149.761719 276.5625 149.476562 276.183594 148.792969 C 275.101562 146.84375 274.015625 144.890625 272.929688 142.941406 C 272.523438 142.210938 272.773438 141.34375 273.464844 140.898438 C 274.132812 140.464844 275.128906 140.75 275.507812 141.433594 C 276.59375 143.382812 277.679688 145.335938 278.761719 147.285156 Z M 192.953125 323.894531 C 191.304688 323.34375 189.792969 324.636719 188.742188 325.746094 C 187.476562 327.085938 186.480469 328.640625 185.167969 329.941406 C 183.25 331.847656 181.007812 333.351562 178.4375 334.230469 C 176.210938 334.953125 173.046875 335.71875 172.304688 338.324219 C 172.007812 339.363281 172.234375 340.527344 172.976562 341.328125 C 173.859375 342.277344 175.289062 342.300781 176.484375 342.285156 C 179.132812 342.257812 181.847656 341.699219 184.417969 341.09375 C 186.777344 340.535156 189.003906 339.578125 190.773438 337.882812 C 193.421875 335.347656 194.820312 331.507812 194.949219 327.871094 C 195.007812 326.320312 194.613281 324.449219 192.953125 323.894531 Z M 191.878906 326.65625 C 191.871094 326.65625 191.863281 326.652344 191.855469 326.640625 C 191.875 326.636719 191.917969 326.644531 191.878906 326.65625 Z M 191.855469 326.636719 C 191.808594 326.566406 191.777344 326.359375 191.855469 326.636719 Z M 191.804688 329.285156 C 191.597656 330.433594 191.3125 331.601562 190.832031 332.667969 C 190.171875 334.125 189.183594 335.472656 187.890625 336.433594 C 186.269531 337.636719 184.269531 338.101562 182.324219 338.488281 C 181.191406 338.714844 180.050781 338.941406 178.902344 339.105469 C 177.699219 339.277344 176.5 339.152344 175.308594 339.269531 C 175.242188 339.277344 175.199219 339.269531 175.171875 339.261719 C 175.175781 339.28125 175.179688 339.304688 175.183594 339.335938 C 175.183594 339.3125 175.171875 339.285156 175.164062 339.257812 C 175.089844 339.230469 175.125 339.175781 175.15625 339.226562 C 175.148438 339.1875 175.148438 339.152344 175.183594 339.117188 C 175.449219 338.859375 175.605469 338.59375 175.933594 338.382812 C 176.929688 337.742188 178.121094 337.472656 179.234375 337.109375 C 182.730469 335.914062 185.949219 333.765625 188.335938 330.929688 C 189.140625 329.972656 189.855469 328.945312 190.703125 328.023438 C 191.074219 327.617188 191.46875 327.207031 191.921875 326.898438 C 191.921875 326.914062 191.929688 326.925781 191.929688 326.941406 C 191.933594 326.980469 191.953125 327.101562 191.953125 327.105469 C 191.96875 327.261719 191.96875 327.421875 191.96875 327.578125 C 191.96875 328.152344 191.90625 328.722656 191.804688 329.285156 Z M 175.15625 339.226562 C 175.160156 339.234375 175.167969 339.246094 175.171875 339.261719 C 175.167969 339.257812 175.167969 339.257812 175.164062 339.257812 C 175.164062 339.246094 175.160156 339.238281 175.15625 339.226562 Z M 100.289062 310.773438 C 98.046875 310.539062 95.84375 310.261719 93.640625 309.769531 C 91.875 309.378906 90.113281 309.070312 88.652344 307.972656 C 87.171875 306.863281 85.589844 306.09375 83.734375 306.832031 C 81.542969 307.707031 80.890625 310 81.617188 312.050781 C 81.652344 312.175781 81.695312 312.304688 81.769531 312.433594 C 81.8125 312.53125 81.871094 312.617188 81.9375 312.695312 C 83.964844 315.921875 88.585938 316.976562 92.085938 317.371094 C 94.160156 317.601562 96.253906 317.574219 98.335938 317.578125 C 99.992188 317.582031 101.925781 318.007812 103.359375 316.957031 C 104.699219 315.976562 105.214844 314.113281 104.265625 312.699219 C 103.402344 311.414062 101.746094 310.921875 100.289062 310.773438 Z M 101.296875 314.660156 C 100.832031 314.785156 100.214844 314.640625 99.742188 314.613281 C 98.972656 314.574219 98.195312 314.59375 97.421875 314.589844 C 95.875 314.589844 94.328125 314.582031 92.785156 314.453125 C 91.007812 314.300781 89.234375 313.933594 87.570312 313.28125 C 86.347656 312.800781 85.011719 312.105469 84.347656 310.925781 C 83.949219 310.027344 84.839844 309.289062 85.691406 309.578125 C 86.664062 309.90625 87.40625 310.867188 88.320312 311.332031 C 89.644531 312.003906 91.226562 312.285156 92.664062 312.609375 C 94.253906 312.96875 95.859375 313.246094 97.476562 313.460938 C 98.667969 313.617188 100.050781 313.527344 101.175781 313.988281 C 101.742188 314.21875 102.058594 314.453125 101.296875 314.660156 Z M 170.34375 282.339844 C 179.367188 287.34375 189.796875 289.261719 200.015625 287.914062 C 200.8125 287.8125 201.515625 288.683594 201.507812 289.410156 C 201.5 290.292969 200.820312 290.796875 200.015625 290.902344 C 189.296875 292.316406 178.285156 290.160156 168.839844 284.917969 C 167.15625 283.984375 168.664062 281.40625 170.34375 282.339844 Z M 199.632812 295.105469 C 199.667969 295.949219 198.917969 296.550781 198.136719 296.601562 C 196.066406 296.730469 193.953125 296.472656 191.972656 295.855469 C 191.175781 295.605469 190.746094 294.828125 190.929688 294.015625 C 191.105469 293.25 192.023438 292.742188 192.769531 292.972656 C 193.234375 293.117188 193.703125 293.246094 194.179688 293.347656 C 194.410156 293.398438 194.636719 293.441406 194.871094 293.480469 C 194.976562 293.5 195.082031 293.515625 195.191406 293.53125 C 195.199219 293.535156 195.199219 293.535156 195.207031 293.535156 C 195.226562 293.535156 195.242188 293.539062 195.277344 293.542969 C 196.226562 293.652344 197.183594 293.675781 198.136719 293.613281 C 198.972656 293.558594 199.597656 294.339844 199.632812 295.105469 Z M 123.363281 353.347656 C 119.769531 352.414062 116.761719 349.800781 115.339844 346.371094 C 113.855469 342.785156 114.34375 338.492188 116.527344 335.296875 C 116.984375 334.628906 117.832031 334.328125 118.574219 334.757812 C 119.234375 335.144531 119.5625 336.136719 119.109375 336.800781 C 117.40625 339.292969 116.933594 342.550781 118.132812 345.363281 C 119.210938 347.902344 121.511719 349.78125 124.15625 350.46875 C 126.019531 350.949219 125.226562 353.832031 123.363281 353.347656 Z M 123.363281 353.347656 " fill-opacity="1" fill-rule="nonzero"/></g></svg>