<svg width="340" height="227" viewBox="0 0 340 227" fill="none" xmlns="http://www.w3.org/2000/svg">
<path d="M7.5 7V177.75C7.5 200.808 26.1921 219.5 49.25 219.5H61.5C77.7924 219.5 91 206.292 91 190V183C91 170.574 80.9264 160.5 68.5 160.5V160.5C56.0736 160.5 46 150.426 46 138V54C46 28.0426 67.0426 7 93 7V7C118.957 7 140 28.0426 140 54V123C140 176.295 183.205 219.5 236.5 219.5H309C322.255 219.5 333 208.755 333 195.5V195.5C333 182.245 322.255 171.5 309 171.5H257C215.026 171.5 181 137.474 181 95.5V36.5C181 20.2076 194.208 7 210.5 7V7C226.792 7 240 20.2076 240 36.5V111.25C240 127.128 252.872 140 268.75 140V140C284.628 140 297.5 127.128 297.5 111.25V42.5C297.5 22.8939 313.394 7 333 7V7" stroke="black" stroke-width="14" stroke-linecap="round"/>
</svg>
